<svg width="200" height="22" viewBox="0 0 200 22" fill="none" xmlns="http://www.w3.org/2000/svg">
<path d="M5.18438 19.2391C5.18438 19.7186 5.64388 19.9983 6.56288 20.0782C6.92249 20.0782 7.10229 20.1881 7.10229 20.4079C7.10229 20.4278 7.08232 20.5577 7.04236 20.7974C6.98242 21.0771 6.92249 21.2569 6.86255 21.3369C6.80262 21.4168 6.67276 21.4567 6.47298 21.4567C6.43302 21.4567 6.31315 21.4567 6.11337 21.4567C5.91358 21.4567 5.57395 21.4467 5.09447 21.4268C4.61499 21.4068 3.97569 21.3968 3.17655 21.3968C1.75809 21.3968 0.849079 21.4168 0.449512 21.4567H0.209772C0.0699241 21.3169 0 21.207 0 21.1271C0.0399567 20.5877 0.169816 20.238 0.389577 20.0782H0.809122C2.2076 20.0183 3.2265 19.5188 3.86581 18.5798C3.98568 18.46 5.79371 15.4133 9.28992 9.43977C12.7861 3.46625 14.5642 0.439531 14.6241 0.359618C14.764 0.119878 15.0037 8.15094e-06 15.3434 8.15094e-06H15.5831H16.0925C16.2124 0.179813 16.2723 0.279705 16.2723 0.299683L17.1114 9.97918C17.6708 16.4322 17.9705 19.6886 18.0105 19.7486C18.1104 19.9683 18.7596 20.0782 19.9583 20.0782C20.4578 20.0782 20.7075 20.1781 20.7075 20.3779C20.7075 20.4179 20.6776 20.5577 20.6176 20.7974C20.5577 21.0971 20.5078 21.2769 20.4678 21.3369C20.4278 21.3968 20.288 21.4367 20.0482 21.4567C19.9883 21.4567 19.8485 21.4567 19.6287 21.4567C19.4089 21.4567 19.0194 21.4467 18.46 21.4268C17.9006 21.4068 17.1714 21.3968 16.2723 21.3968C14.3944 21.3968 13.1657 21.4168 12.5863 21.4567H12.2267C12.1069 21.3369 12.0469 21.247 12.0469 21.187C12.0469 21.1271 12.0669 20.9473 12.1069 20.6476C12.1868 20.3879 12.2467 20.2281 12.2867 20.1681L12.4065 20.0782H13.0059C14.0847 20.0183 14.724 19.8485 14.9238 19.5688L14.5642 15.0737H7.43194L6.41304 16.8118C5.59393 18.1903 5.18438 18.9994 5.18438 19.2391ZM14.4144 13.6652C14.4144 13.4454 14.2945 11.8871 14.0548 8.99025C13.815 6.0934 13.6752 4.63498 13.6352 4.615L12.8261 5.9036C12.5064 6.44302 11.8771 7.51186 10.9381 9.11012L8.24106 13.6652L11.3277 13.6951C13.3855 13.6951 14.4144 13.6852 14.4144 13.6652Z" fill="black"/>
<path d="M31.4299 11.058C31.4299 10.7983 31.5697 10.5985 31.8494 10.4587H50.9387C51.2384 10.6185 51.3882 10.8183 51.3882 11.058C51.3882 11.2778 51.2484 11.4676 50.9687 11.6274L41.439 11.6574H31.9094C31.5897 11.5575 31.4299 11.3577 31.4299 11.058ZM31.4299 16.8717C31.4299 16.572 31.5897 16.3723 31.9094 16.2724H50.9687C51.2484 16.4722 51.3882 16.6719 51.3882 16.8717C51.3882 17.1314 51.2384 17.3312 50.9387 17.4711H31.8494C31.5697 17.3312 31.4299 17.1314 31.4299 16.8717Z" fill="black"/>
<path d="M62.6201 20.0782H63.0396C63.8188 20.0782 64.2882 19.9384 64.4481 19.6587V19.4189C64.4481 19.2391 64.4481 19.0094 64.4481 18.7297C64.4481 18.45 64.4481 18.1403 64.4481 17.8007C64.4481 17.4611 64.4581 17.0715 64.478 16.632C64.498 16.1924 64.498 15.7729 64.478 15.3733C64.478 14.754 64.478 14.0947 64.478 13.3955C64.478 12.6962 64.4681 12.1069 64.4481 11.6274V10.9381C64.3881 10.5586 64.2483 10.3088 64.0285 10.189C63.8088 10.0691 63.3593 9.97918 62.68 9.91924H62.1406V9.22999C62.1406 8.77049 62.1606 8.54074 62.2005 8.54074L62.5002 8.51077C62.7 8.49079 62.9797 8.47082 63.3393 8.45084C63.6989 8.43086 64.0685 8.41088 64.4481 8.3909C64.7877 8.37092 65.1473 8.35095 65.5269 8.33097C65.9065 8.31099 66.1962 8.28102 66.396 8.24107C66.5957 8.20111 66.7056 8.19112 66.7256 8.2111H66.8155V9.4098C66.8155 10.169 66.8255 10.5486 66.8455 10.5486C66.8655 10.5486 66.9154 10.4986 66.9953 10.3987C67.0752 10.2988 67.1951 10.149 67.3549 9.94921C67.5147 9.74943 67.7045 9.56962 67.9243 9.4098C68.1441 9.24997 68.4337 9.06018 68.7934 8.84041C69.153 8.62065 69.5326 8.46083 69.9321 8.36094C70.3317 8.26104 70.8411 8.2111 71.4605 8.2111C71.7601 8.2111 72.0398 8.23108 72.2996 8.27103C72.5593 8.31099 72.789 8.37092 72.9888 8.45084C73.1886 8.53075 73.3784 8.61066 73.5582 8.69058C73.738 8.77049 73.8878 8.86039 74.0077 8.96028C74.1276 9.06018 74.2375 9.17006 74.3373 9.28993C74.4372 9.4098 74.5271 9.51968 74.6071 9.61957C74.687 9.71946 74.7569 9.82934 74.8168 9.94921C74.8768 10.0691 74.9167 10.169 74.9367 10.2489C74.9567 10.3288 74.9866 10.4087 75.0266 10.4886L75.0865 10.6385L75.1764 10.5186C75.2364 10.4387 75.2963 10.3588 75.3562 10.2789C75.4162 10.1989 75.5061 10.0891 75.6259 9.94921C75.7458 9.80936 75.8757 9.6795 76.0155 9.55963C76.1554 9.43976 76.3052 9.30991 76.465 9.17006C76.6249 9.03021 76.8246 8.91034 77.0644 8.81045C77.3041 8.71056 77.5339 8.61066 77.7536 8.51077C77.9734 8.41088 78.2331 8.34096 78.5328 8.301C78.8325 8.26104 79.1421 8.23108 79.4618 8.2111C81.9791 8.2111 83.3476 9.33987 83.5673 11.5974C83.5873 11.7373 83.5973 13.1258 83.5973 15.7629V18.3401C83.5973 19.0993 83.6173 19.5488 83.6572 19.6886C83.6972 19.8285 83.8071 19.9284 83.9869 19.9883C84.4064 20.0483 84.8959 20.0782 85.4553 20.0782H85.9348V21.4567H85.695L85.0058 21.4268C84.5263 21.4068 84.0168 21.3968 83.4774 21.3968C82.938 21.3968 82.5584 21.3868 82.3387 21.3668C80.2809 21.3668 79.1621 21.3968 78.9823 21.4567H78.7426V20.0782H79.222C80.4407 20.0782 81.0501 19.9184 81.0501 19.5987C81.07 19.5588 81.08 18.1803 81.08 15.4632C81.06 12.7662 81.0401 11.3377 81.0201 11.1779C80.9002 10.6185 80.7004 10.1989 80.4207 9.91924C80.141 9.63955 79.9013 9.46973 79.7015 9.4098C79.5017 9.34986 79.242 9.32988 78.9224 9.34986C78.0233 9.34986 77.2342 9.68949 76.5549 10.3688C76.0155 10.9082 75.6759 11.4576 75.536 12.017C75.3962 12.5764 75.3163 13.4055 75.2963 14.5043V16.4222V18.2202C75.2963 18.8196 75.3063 19.2192 75.3263 19.4189C75.3462 19.6187 75.3762 19.7486 75.4162 19.8085C75.4561 19.8684 75.546 19.9284 75.6859 19.9883C76.1054 20.0483 76.5949 20.0782 77.1543 20.0782H77.6338V21.4567H77.394L76.6748 21.4268C76.2153 21.4068 75.7158 21.3968 75.1764 21.3968C74.637 21.3968 74.2574 21.3868 74.0377 21.3668C71.9799 21.3668 70.8611 21.3968 70.6813 21.4567H70.4416V20.0782H70.9211C72.1397 20.0782 72.7491 19.9184 72.7491 19.5987C72.769 19.5588 72.779 18.1803 72.779 15.4632C72.7591 12.7662 72.7391 11.3377 72.7191 11.1779C72.5992 10.6185 72.3994 10.1989 72.1197 9.91924C71.8401 9.63955 71.6003 9.46973 71.4005 9.4098C71.2007 9.34986 70.941 9.32988 70.6214 9.34986C69.7224 9.34986 68.9332 9.68949 68.2539 10.3688C67.7145 10.9082 67.3749 11.4576 67.235 12.017C67.0952 12.5764 67.0153 13.4055 66.9953 14.5043V16.4222V18.2202C66.9953 18.8196 67.0053 19.2192 67.0253 19.4189C67.0453 19.6187 67.0752 19.7486 67.1152 19.8085C67.1551 19.8684 67.245 19.9284 67.3849 19.9883C67.8044 20.0483 68.2939 20.0782 68.8533 20.0782H69.3328V21.4567H69.093L68.4038 21.4268C67.9243 21.4068 67.4149 21.3968 66.8754 21.3968C66.336 21.3968 65.9564 21.3868 65.7367 21.3668C63.6789 21.3668 62.5601 21.3968 62.3803 21.4567H62.1406V20.0782H62.6201Z" fill="black"/>
<path d="M90.4599 12.3167C90.4599 12.3167 90.2401 12.3167 89.8006 12.3167C89.361 12.3167 88.9914 12.1668 88.6918 11.8671C88.3921 11.5675 88.2423 11.1779 88.2423 10.6984C88.2423 9.99917 88.5819 9.37984 89.2612 8.84042C89.9404 8.30101 91.1491 8.0313 92.8872 8.0313C94.3456 8.0313 95.5244 8.35095 96.4234 8.99026C97.3224 9.62957 97.9218 10.3887 98.2214 11.2678C98.3213 11.5475 98.3713 11.8571 98.3713 12.1968C98.3713 12.5364 98.3813 13.6852 98.4012 15.643V17.7408C98.4012 18.6997 98.4512 19.359 98.5511 19.7186C98.651 20.0782 98.8607 20.258 99.1804 20.258C99.4801 20.258 99.6798 20.0982 99.7797 19.7786C99.8796 19.4589 99.9296 18.9295 99.9296 18.1903V17.1114H101.128V18.2802C101.108 19.0793 101.078 19.5488 101.038 19.6887C100.859 20.288 100.509 20.7575 99.9895 21.0971C99.4701 21.4368 98.9207 21.6166 98.3413 21.6365C97.7619 21.6565 97.2924 21.4767 96.9328 21.0971C96.5732 20.7175 96.3335 20.298 96.2136 19.8385V19.7186L96.1537 19.8085C96.1137 19.8685 96.0638 19.9284 96.0038 19.9883C95.9439 20.0483 95.864 20.1382 95.7641 20.258C95.6642 20.3779 95.5443 20.4878 95.4045 20.5877C95.2646 20.6876 95.1148 20.8074 94.955 20.9473C94.7951 21.0871 94.6153 21.197 94.4156 21.2769C94.2158 21.3568 93.996 21.4368 93.7563 21.5167C93.5165 21.5966 93.2568 21.6565 92.9771 21.6965C92.6974 21.7364 92.3878 21.7664 92.0481 21.7864C90.8494 21.7864 89.7706 21.4767 88.8116 20.8574C87.8527 20.2381 87.3732 19.369 87.3732 18.2502C87.3732 17.8307 87.4431 17.4311 87.583 17.0515C87.7228 16.6719 87.9925 16.2624 88.3921 15.8228C88.7917 15.3833 89.2711 15.0137 89.8305 14.7141C90.3899 14.4144 91.1691 14.1347 92.168 13.875C93.1669 13.6152 94.2657 13.4654 95.4644 13.4254H95.884V12.7662C95.884 12.0869 95.824 11.5874 95.7042 11.2678C95.2646 9.84933 94.2957 9.1401 92.7973 9.1401C92.4377 9.1401 92.0981 9.15009 91.7784 9.17006C91.4588 9.19004 91.209 9.23 91.0292 9.28993C90.8494 9.34987 90.7695 9.37984 90.7895 9.37984C91.229 9.67951 91.4488 10.119 91.4488 10.6984C91.4488 11.1979 91.289 11.5874 90.9693 11.8671L90.4599 12.3167ZM90.1302 18.2802C90.1302 18.8995 90.37 19.4489 90.8494 19.9284C91.3289 20.4079 91.9183 20.6576 92.6175 20.6776C93.3767 20.6776 94.046 20.4478 94.6253 19.9883C95.2047 19.5288 95.5943 18.9295 95.7941 18.1903C95.834 18.0504 95.864 17.3911 95.884 16.2124C95.884 15.0537 95.874 14.4743 95.854 14.4743C95.6942 14.4743 95.4844 14.4843 95.2247 14.5043C94.965 14.5243 94.5155 14.6142 93.8761 14.774C93.2368 14.9338 92.6575 15.1336 92.138 15.3733C91.6186 15.6131 91.1591 15.9827 90.7595 16.4821C90.36 16.9816 90.1502 17.5809 90.1302 18.2802Z" fill="black"/>
<path d="M107.362 21.4567C107.122 21.3968 106.133 21.3668 104.395 21.3668C102.876 21.3668 102.027 21.3968 101.848 21.4567H101.668V20.0782H102.087C102.547 20.0582 102.966 19.9983 103.346 19.8984C103.725 19.7985 104.015 19.7086 104.215 19.6287C104.415 19.5488 104.664 19.379 104.964 19.1193C105.264 18.8595 105.444 18.6797 105.504 18.5798C105.563 18.48 105.773 18.2202 106.133 17.8007C106.492 17.3811 106.692 17.1015 106.732 16.9616L108.111 15.1636L106.373 12.8261C106.193 12.5664 106.003 12.2967 105.803 12.017C105.603 11.7373 105.444 11.5275 105.324 11.3877C105.204 11.2478 105.094 11.098 104.994 10.9381C104.894 10.7783 104.804 10.6584 104.724 10.5785C104.644 10.4986 104.585 10.4287 104.545 10.3688C104.505 10.3088 104.435 10.2489 104.335 10.189C104.235 10.129 104.175 10.099 104.155 10.099C104.135 10.099 104.075 10.0791 103.975 10.0391C103.875 9.99916 103.795 9.97918 103.735 9.97918C103.616 9.97918 103.256 9.9592 102.657 9.91924H101.818V8.54074H102.027C102.747 8.5807 103.775 8.60068 105.114 8.60068C106.972 8.60068 108.001 8.5807 108.201 8.54074H108.44V9.91924C107.721 9.99916 107.362 10.159 107.362 10.3987C107.362 10.4387 107.461 10.5985 107.661 10.8782C107.861 11.1579 108.141 11.5375 108.5 12.017C108.86 12.4964 109.15 12.906 109.369 13.2456L109.489 13.3655L110.238 12.3466C110.878 11.5275 111.197 10.9881 111.197 10.7284C111.197 10.6085 111.177 10.4986 111.137 10.3987C111.097 10.2988 111.048 10.2289 110.988 10.189C110.928 10.149 110.878 10.109 110.838 10.0691C110.798 10.0291 110.728 9.98917 110.628 9.94921L110.538 9.91924H110.388V8.54074H110.598C110.898 8.60068 111.887 8.63064 113.565 8.63064C115.143 8.63064 115.992 8.60068 116.112 8.54074H116.292V9.91924H116.082C115.103 9.91924 114.294 10.0891 113.655 10.4287C113.315 10.5885 112.975 10.8582 112.636 11.2378C112.296 11.6174 111.647 12.4565 110.688 13.7551L110.208 14.3844L112.066 16.9316C113.385 18.7297 114.094 19.6687 114.194 19.7486C114.294 19.8285 114.464 19.8984 114.704 19.9584C115.063 20.0383 115.593 20.0782 116.292 20.0782H116.801V21.4567H116.621H116.382C116.222 21.4367 116.022 21.4268 115.782 21.4268C115.543 21.4268 115.293 21.4168 115.033 21.3968C114.773 21.3768 114.524 21.3768 114.284 21.3968C114.044 21.4168 113.864 21.4068 113.745 21.3668C113.525 21.3668 113.155 21.3668 112.636 21.3668C112.116 21.3668 111.617 21.3868 111.137 21.4268L110.448 21.4567H110.178V20.0782H110.268C110.488 20.0782 110.708 20.0283 110.928 19.9284C111.147 19.8285 111.257 19.7086 111.257 19.5688C111.257 19.5288 110.858 18.9594 110.059 17.8606L108.83 16.2124C108.81 16.2324 108.5 16.6519 107.901 17.4711C107.302 18.2902 106.962 18.7397 106.882 18.8196C106.802 18.9195 106.762 19.0593 106.762 19.2391C106.762 19.4589 106.832 19.6487 106.972 19.8085C107.112 19.9683 107.292 20.0582 107.511 20.0782C107.551 20.0782 107.571 20.308 107.571 20.7675V21.4567H107.362Z" fill="black"/>
<path d="M124.671 14.3544C124.671 14.3544 124.671 14.2246 124.671 13.9649C124.671 13.7051 124.811 13.5054 125.09 13.3655H142.501C142.801 13.5253 142.951 13.7251 142.951 13.9649C142.951 14.2046 142.801 14.4044 142.501 14.5642H125.09C124.811 14.4244 124.671 14.2246 124.671 13.9649V14.3544Z" fill="black"/>
<path d="M151.692 20.0782H152.112C152.891 20.0782 153.361 19.9384 153.52 19.6587V19.4189C153.52 19.2391 153.52 19.0094 153.52 18.7297C153.52 18.45 153.52 18.1403 153.52 17.8007C153.52 17.4611 153.53 17.0715 153.55 16.632C153.57 16.1924 153.57 15.7729 153.55 15.3733C153.55 14.754 153.55 14.0947 153.55 13.3955C153.55 12.6962 153.54 12.1069 153.52 11.6274V10.9381C153.46 10.5586 153.321 10.3088 153.101 10.189C152.881 10.0691 152.432 9.97918 151.752 9.91924H151.213V9.22999C151.213 8.77049 151.233 8.54074 151.273 8.54074L151.573 8.51077C151.772 8.49079 152.052 8.47082 152.412 8.45084C152.771 8.43086 153.141 8.41088 153.52 8.3909C153.86 8.37092 154.22 8.35095 154.599 8.33097C154.979 8.31099 155.269 8.28102 155.468 8.24107C155.668 8.20111 155.778 8.19112 155.798 8.2111H155.888V9.4098C155.888 10.169 155.898 10.5486 155.918 10.5486C155.938 10.5486 155.988 10.4986 156.068 10.3987C156.148 10.2988 156.267 10.149 156.427 9.94921C156.587 9.74943 156.777 9.56962 156.997 9.4098C157.216 9.24997 157.506 9.06018 157.866 8.84041C158.225 8.62065 158.605 8.46083 159.004 8.36094C159.404 8.26104 159.913 8.2111 160.533 8.2111C160.832 8.2111 161.112 8.23108 161.372 8.27103C161.632 8.31099 161.861 8.37092 162.061 8.45084C162.261 8.53075 162.451 8.61066 162.631 8.69058C162.81 8.77049 162.96 8.86039 163.08 8.96028C163.2 9.06018 163.31 9.17006 163.41 9.28993C163.51 9.4098 163.599 9.51968 163.679 9.61957C163.759 9.71946 163.829 9.82934 163.889 9.94921C163.949 10.0691 163.989 10.169 164.009 10.2489C164.029 10.3288 164.059 10.4087 164.099 10.4886L164.159 10.6385L164.249 10.5186C164.309 10.4387 164.369 10.3588 164.429 10.2789C164.489 10.1989 164.578 10.0891 164.698 9.94921C164.818 9.80936 164.948 9.6795 165.088 9.55963C165.228 9.43976 165.378 9.30991 165.537 9.17006C165.697 9.03021 165.897 8.91034 166.137 8.81045C166.376 8.71056 166.606 8.61066 166.826 8.51077C167.046 8.41088 167.305 8.34096 167.605 8.301C167.905 8.26104 168.214 8.23108 168.534 8.2111C171.051 8.2111 172.42 9.33987 172.64 11.5974C172.66 11.7373 172.67 13.1258 172.67 15.7629V18.3401C172.67 19.0993 172.69 19.5488 172.73 19.6886C172.77 19.8285 172.879 19.9284 173.059 19.9883C173.479 20.0483 173.968 20.0782 174.528 20.0782H175.007V21.4567H174.767L174.078 21.4268C173.599 21.4068 173.089 21.3968 172.55 21.3968C172.01 21.3968 171.631 21.3868 171.411 21.3668C169.353 21.3668 168.234 21.3968 168.055 21.4567H167.815V20.0782H168.294C169.513 20.0782 170.122 19.9184 170.122 19.5987C170.142 19.5588 170.152 18.1803 170.152 15.4632C170.132 12.7662 170.112 11.3377 170.092 11.1779C169.973 10.6185 169.773 10.1989 169.493 9.91924C169.213 9.63955 168.974 9.46973 168.774 9.4098C168.574 9.34986 168.314 9.32988 167.995 9.34986C167.096 9.34986 166.307 9.68949 165.627 10.3688C165.088 10.9082 164.748 11.4576 164.608 12.017C164.469 12.5764 164.389 13.4055 164.369 14.5043V16.4222V18.2202C164.369 18.8196 164.379 19.2192 164.399 19.4189C164.419 19.6187 164.449 19.7486 164.489 19.8085C164.528 19.8684 164.618 19.9284 164.758 19.9883C165.178 20.0483 165.667 20.0782 166.227 20.0782H166.706V21.4567H166.466L165.747 21.4268C165.288 21.4068 164.788 21.3968 164.249 21.3968C163.709 21.3968 163.33 21.3868 163.11 21.3668C161.052 21.3668 159.933 21.3968 159.754 21.4567H159.514V20.0782H159.993C161.212 20.0782 161.821 19.9184 161.821 19.5987C161.841 19.5588 161.851 18.1803 161.851 15.4632C161.831 12.7662 161.811 11.3377 161.791 11.1779C161.672 10.6185 161.472 10.1989 161.192 9.91924C160.912 9.63955 160.673 9.46973 160.473 9.4098C160.273 9.34986 160.013 9.32988 159.694 9.34986C158.795 9.34986 158.006 9.68949 157.326 10.3688C156.787 10.9082 156.447 11.4576 156.307 12.017C156.168 12.5764 156.088 13.4055 156.068 14.5043V16.4222V18.2202C156.068 18.8196 156.078 19.2192 156.098 19.4189C156.118 19.6187 156.148 19.7486 156.188 19.8085C156.227 19.8684 156.317 19.9284 156.457 19.9883C156.877 20.0483 157.366 20.0782 157.926 20.0782H158.405V21.4567H158.165L157.476 21.4268C156.997 21.4068 156.487 21.3968 155.948 21.3968C155.408 21.3968 155.029 21.3868 154.809 21.3668C152.751 21.3668 151.632 21.3968 151.453 21.4567H151.213V20.0782H151.692Z" fill="black"/>
<path d="M177.494 3.20653C177.494 2.64714 177.674 2.20761 178.034 1.88796C178.393 1.56831 178.833 1.40848 179.352 1.40848C179.812 1.44844 180.211 1.61825 180.551 1.91793C180.891 2.2176 181.061 2.64714 181.061 3.20653C181.061 3.80588 180.891 4.25539 180.551 4.55507C180.211 4.85474 179.792 5.00458 179.292 5.00458C178.793 5.00458 178.373 4.85474 178.034 4.55507C177.694 4.25539 177.514 3.80588 177.494 3.20653ZM182.829 21.4567C182.529 21.3968 181.49 21.3668 179.712 21.3668C179.492 21.3668 179.123 21.3668 178.603 21.3668C178.084 21.3668 177.584 21.3868 177.105 21.4268L176.446 21.4567H176.206V20.0782H176.685C177.245 20.0782 177.734 20.0483 178.154 19.9883C178.334 19.9084 178.443 19.7985 178.483 19.6587C178.523 19.5188 178.543 19.0993 178.543 18.4V15.3134V12.6763C178.543 11.6374 178.523 10.9781 178.483 10.6984C178.443 10.4187 178.304 10.2289 178.064 10.129C177.784 9.98917 177.315 9.91925 176.655 9.91925H176.326V9.22999C176.326 8.77049 176.346 8.54074 176.386 8.54074L176.685 8.51077C176.885 8.4908 177.165 8.47082 177.524 8.45084C177.884 8.43086 178.244 8.41088 178.603 8.3909C178.943 8.37093 179.302 8.35095 179.682 8.33097C180.062 8.31099 180.351 8.28102 180.551 8.24107C180.751 8.20111 180.861 8.19112 180.881 8.2111H180.971V19.5987C181.071 19.7985 181.19 19.9184 181.33 19.9584C181.47 19.9983 181.82 20.0383 182.379 20.0782H183.068V21.4567H182.829Z" fill="black"/>
<path d="M184.986 20.0782H185.406C186.185 20.0782 186.654 19.9384 186.814 19.6587V19.4189C186.814 19.2391 186.814 19.0094 186.814 18.7297C186.814 18.45 186.814 18.1403 186.814 17.8007C186.814 17.4611 186.824 17.0715 186.844 16.632C186.864 16.1924 186.864 15.7729 186.844 15.3733C186.844 14.754 186.844 14.0947 186.844 13.3955C186.844 12.6962 186.834 12.1069 186.814 11.6274V10.9381C186.754 10.5586 186.615 10.3088 186.395 10.189C186.175 10.0691 185.725 9.97918 185.046 9.91924H184.507V9.22999C184.507 8.77049 184.527 8.54074 184.567 8.54074L184.866 8.51077C185.066 8.49079 185.346 8.47082 185.706 8.45084C186.065 8.43086 186.435 8.41088 186.814 8.3909C187.154 8.37092 187.514 8.35095 187.893 8.33097C188.273 8.31099 188.562 8.28102 188.762 8.24107C188.962 8.20111 189.072 8.19112 189.092 8.2111H189.182V9.4098C189.182 10.169 189.192 10.5486 189.212 10.5486C189.232 10.5486 189.282 10.4986 189.362 10.3987C189.441 10.2988 189.561 10.149 189.721 9.94921C189.881 9.74943 190.071 9.56962 190.291 9.4098C190.51 9.24997 190.8 9.06018 191.16 8.84041C191.519 8.62065 191.899 8.46083 192.298 8.36094C192.698 8.26104 193.207 8.2111 193.827 8.2111C196.104 8.29101 197.373 9.41979 197.633 11.5974C197.653 11.7373 197.663 13.1258 197.663 15.7629V18.3401C197.663 19.0993 197.683 19.5488 197.722 19.6886C197.762 19.8285 197.872 19.9284 198.052 19.9883C198.472 20.0483 198.961 20.0782 199.521 20.0782H200V21.4567H199.76L199.041 21.4268C198.582 21.4068 198.082 21.3968 197.543 21.3968C197.003 21.3968 196.624 21.3868 196.404 21.3668C194.346 21.3668 193.227 21.3968 193.048 21.4567H192.808V20.0782H193.287C194.506 20.0782 195.115 19.9184 195.115 19.5987C195.135 19.5588 195.145 18.1803 195.145 15.4632C195.125 12.7662 195.105 11.3377 195.085 11.1779C194.965 10.6185 194.766 10.1989 194.486 9.91924C194.206 9.63955 193.967 9.46973 193.767 9.4098C193.567 9.34986 193.307 9.32988 192.988 9.34986C192.089 9.34986 191.299 9.68949 190.62 10.3688C190.081 10.9082 189.741 11.4576 189.601 12.017C189.461 12.5764 189.382 13.4055 189.362 14.5043V16.4222V18.2202C189.362 18.8196 189.372 19.2192 189.392 19.4189C189.411 19.6187 189.441 19.7486 189.481 19.8085C189.521 19.8684 189.611 19.9284 189.751 19.9883C190.171 20.0483 190.66 20.0782 191.22 20.0782H191.699V21.4567H191.459L190.77 21.4268C190.291 21.4068 189.781 21.3968 189.242 21.3968C188.702 21.3968 188.323 21.3868 188.103 21.3668C186.045 21.3668 184.926 21.3968 184.747 21.4567H184.507V20.0782H184.986Z" fill="black"/>
</svg>
