<svg width="136" height="73" viewBox="0 0 136 73" fill="none" xmlns="http://www.w3.org/2000/svg">
<path d="M1.9383 35.9543C2.05644 35.2052 2.51216 34.3401 3.30545 33.3591C4.09873 32.3781 5.07768 31.8787 6.24229 31.8609C6.83304 31.8609 7.37315 32.0214 7.86262 32.3425C8.35209 32.6635 8.71498 33.0648 8.95128 33.5464C9.66017 32.4227 10.5125 31.8609 11.5084 31.8609C12.1329 31.8609 12.673 32.0571 13.1287 32.4495C13.5844 32.8419 13.8207 33.368 13.8376 34.028C13.8376 34.5452 13.7194 34.9644 13.4831 35.2854C13.2468 35.6065 13.019 35.8027 12.7996 35.874C12.5801 35.9453 12.386 35.981 12.2172 35.981C11.8966 35.981 11.6349 35.8829 11.4324 35.6867C11.2299 35.4905 11.1286 35.2319 11.1286 34.9109C11.1286 34.0904 11.5506 33.5286 12.3945 33.2254C12.2088 32.9935 11.8712 32.8776 11.3818 32.8776C11.1623 32.8776 11.002 32.8954 10.9007 32.9311C10.2594 33.2164 9.78676 33.805 9.48295 34.6968C8.47024 38.6386 7.96389 40.9394 7.96389 41.5994C7.96389 42.0988 8.09892 42.4555 8.36897 42.6695C8.63903 42.8836 8.9344 42.9906 9.25509 42.9906C9.87959 42.9906 10.4957 42.6963 11.1033 42.1077C11.7109 41.5191 12.1244 40.7968 12.3438 39.9406C12.3945 39.7623 12.4451 39.6642 12.4957 39.6463C12.5464 39.6285 12.6814 39.6107 12.9008 39.5928H13.0021C13.2553 39.5928 13.3819 39.6642 13.3819 39.8069C13.3819 39.8247 13.365 39.9228 13.3312 40.1011C13.0612 41.1178 12.5379 42.0185 11.7615 42.8033C10.9851 43.5881 10.0821 43.9805 9.05255 43.9805C7.87106 43.9805 6.9765 43.4186 6.36888 42.295C5.67686 43.4008 4.88358 43.9537 3.98902 43.9537H3.83712C3.01008 43.9537 2.41933 43.7219 2.06488 43.2581C1.71044 42.7944 1.52477 42.3039 1.5079 41.7867C1.5079 41.2159 1.66824 40.7522 1.98893 40.3954C2.30962 40.0387 2.68939 39.8604 3.12822 39.8604C3.854 39.8604 4.21688 40.2349 4.21688 40.984C4.21688 41.3408 4.11561 41.6529 3.91307 41.9204C3.71053 42.188 3.51643 42.3663 3.33077 42.4555C3.1451 42.5447 3.03539 42.5893 3.00164 42.5893L2.92568 42.616C2.92568 42.6339 2.97632 42.6695 3.07759 42.723C3.17886 42.7766 3.31389 42.839 3.48267 42.9103C3.65145 42.9817 3.8118 43.0084 3.96371 42.9906C4.57133 42.9906 5.09456 42.5893 5.5334 41.7867C5.6853 41.5013 5.87941 40.8948 6.1157 39.9674C6.352 39.0399 6.5883 38.0768 6.8246 37.0779C7.06089 36.0791 7.19592 35.4905 7.22968 35.3122C7.31407 34.8306 7.35627 34.4828 7.35627 34.2688C7.35627 33.7694 7.22968 33.4126 6.9765 33.1986C6.72333 32.9846 6.43639 32.8776 6.1157 32.8776C5.44057 32.8776 4.80763 33.1629 4.21688 33.7337C3.62614 34.3044 3.21262 35.0357 2.97632 35.9275C2.94256 36.088 2.90037 36.1772 2.84973 36.1951C2.7991 36.2129 2.66407 36.2307 2.44465 36.2486H2.0902C1.98893 36.1415 1.9383 36.0434 1.9383 35.9543Z" fill="black"/>
<path d="M0 29.1919V28.3218H15.6826V29.1919H0Z" fill="black"/>
<path d="M23.5545 34.4025C23.5545 34.1707 23.6726 33.9923 23.9089 33.8675H40.0363C40.2894 34.0101 40.416 34.1885 40.416 34.4025C40.416 34.5987 40.2979 34.7682 40.0616 34.9109L32.0106 34.9376H23.9596C23.6895 34.8484 23.5545 34.6701 23.5545 34.4025ZM23.5545 39.5928C23.5545 39.3253 23.6895 39.1469 23.9596 39.0577H40.0616C40.2979 39.2361 40.416 39.4145 40.416 39.5928C40.416 39.8247 40.2894 40.003 40.0363 40.1279H23.9089C23.6726 40.003 23.5545 39.8247 23.5545 39.5928Z" fill="black"/>
<path d="M64.7412 10.1366L64.412 10.2704C64.1757 10.3596 63.8382 10.4488 63.3993 10.5379C62.9605 10.6271 62.471 10.6895 61.9309 10.7252H61.4499V9.49452H61.9309C62.7242 9.45885 63.4584 9.32508 64.1336 9.09321C64.8087 8.86134 65.2813 8.64731 65.5513 8.45111C65.8214 8.25492 66.0577 8.05872 66.2602 7.86253C66.294 7.80902 66.3953 7.78226 66.564 7.78226C66.716 7.78226 66.8594 7.83577 66.9944 7.94279V15.9422L67.0198 23.9685C67.1379 24.0933 67.2392 24.1736 67.3236 24.2093C67.408 24.2449 67.6105 24.2806 67.9312 24.3163C68.2519 24.3519 68.7751 24.3698 69.5009 24.3698H70.1591V25.6005H69.8807C69.5262 25.547 68.1844 25.5202 65.8552 25.5202C63.5597 25.5202 62.2347 25.547 61.8803 25.6005H61.5765V24.3698H62.2347C62.6061 24.3698 62.9267 24.3698 63.1968 24.3698C63.4669 24.3698 63.6778 24.3609 63.8297 24.343C63.9816 24.3252 64.1167 24.2984 64.2348 24.2628C64.353 24.2271 64.4205 24.2093 64.4374 24.2093C64.4542 24.2093 64.5049 24.1647 64.5893 24.0755C64.6737 23.9863 64.7243 23.9506 64.7412 23.9685V10.1366Z" fill="black"/>
<path d="M60.3612 44.9972C60.3106 44.9972 60.2431 44.9972 60.1587 44.9972C59.7367 44.9972 59.4836 44.9882 59.3992 44.9704C59.3148 44.9526 59.2726 44.8545 59.2726 44.6761C59.2726 44.1945 59.3654 43.9002 59.5511 43.7932C59.5848 43.7754 60.4034 43.7665 62.0069 43.7665C63.3065 43.7665 64.0492 43.7665 64.2348 43.7665C64.4205 43.7665 64.5386 43.82 64.5893 43.927C68.1506 52.7737 69.965 57.3129 70.0326 57.5448L71.3997 51.8462C72.2943 48.0828 72.7415 46.0762 72.7415 45.8265C72.7415 45.345 72.2014 45.0685 71.1212 44.9972C70.7161 44.9972 70.5136 44.8991 70.5136 44.7029C70.5136 44.6672 70.5305 44.5602 70.5642 44.3818C70.6317 44.0964 70.6824 43.927 70.7161 43.8735C70.7499 43.82 70.8343 43.7843 70.9693 43.7665C71.0199 43.7665 71.2816 43.7754 71.7542 43.7932C72.2268 43.8111 72.9272 43.8289 73.8555 43.8467C74.6994 43.8467 75.3408 43.8378 75.7797 43.82C76.2185 43.8021 76.4717 43.7932 76.5392 43.7932C76.7924 43.7932 76.919 43.8824 76.919 44.0608C76.919 44.4532 76.8514 44.7207 76.7164 44.8634C76.6827 44.9526 76.497 44.9972 76.1594 44.9972C74.9611 45.0685 74.21 45.4252 73.9062 46.0673L70.1338 61.8522C70.1001 61.9771 69.9229 62.0395 69.6022 62.0395C69.3659 62.0395 69.2224 62.0217 69.1718 61.986C69.1211 61.9325 68.0325 59.2303 65.9058 53.8795L62.6905 45.88L61.0448 52.8361C59.9477 57.4021 59.3992 59.7654 59.3992 59.9259C59.4836 60.5145 60.0912 60.8088 61.222 60.8088H61.4752C61.5765 60.898 61.6271 60.9693 61.6271 61.0228C61.6271 61.0763 61.6102 61.2458 61.5765 61.5312C61.509 61.763 61.4246 61.9325 61.3233 62.0395H60.9942C60.4709 62.0038 59.5595 61.986 58.2599 61.986C57.7873 61.986 57.3569 61.986 56.9687 61.986C56.5805 61.986 56.2682 61.986 56.0319 61.986C55.7956 61.986 55.6522 61.9949 55.6015 62.0127C55.3483 62.0127 55.2218 61.9325 55.2218 61.7719C55.2218 61.7006 55.2471 61.5579 55.2977 61.3439C55.3483 61.1299 55.3905 61.005 55.4243 60.9693C55.4581 60.8623 55.6522 60.8088 56.0066 60.8088C57.1543 60.7553 57.897 60.4075 58.2346 59.7654C58.3021 59.6584 58.9012 57.1881 60.0321 52.3545L61.7537 45.0774C61.7199 45.0596 61.2558 45.0328 60.3612 44.9972Z" fill="black"/>
<path d="M79.4507 37.8003H51.9051V36.1951H79.4507V37.8003Z" fill="black"/>
<path d="M90.0892 36.9977C90.0892 36.5696 90.2326 36.1951 90.5196 35.874C90.8065 35.553 91.1694 35.3924 91.6082 35.3924C92.0133 35.3924 92.3678 35.5351 92.6716 35.8205C92.9754 36.1059 93.1357 36.4894 93.1526 36.9709C93.1526 37.4168 93.0091 37.8003 92.7222 38.1214C92.4353 38.4424 92.0724 38.6029 91.6335 38.6029C91.1947 38.6029 90.8318 38.4513 90.5449 38.1481C90.258 37.8449 90.1061 37.4614 90.0892 36.9977Z" fill="black"/>
<path d="M102.297 18.3233C102.348 18.2877 107.454 18.2698 117.614 18.2698H132.856L134.324 21.8816C135.32 24.343 135.852 25.645 135.919 25.7877H134.906L134.729 25.4132C134.375 24.6819 133.902 23.9863 133.311 23.3263C132.468 22.4702 131.531 21.7835 130.501 21.2663C129.472 20.749 128.282 20.3656 126.931 20.1159C125.581 19.8662 124.307 19.7146 123.108 19.661C121.91 19.6075 120.366 19.5719 118.475 19.554H115.311H114.526H107.133L107.336 19.8483C115.15 31.1385 119.074 36.8371 119.108 36.9442C119.125 36.9798 119.125 37.0333 119.108 37.1047C119.058 37.1582 116.83 39.8514 112.424 45.1844L105.741 53.2106C105.741 53.2285 107.521 53.2374 111.083 53.2374C111.96 53.2374 113.15 53.2374 114.652 53.2374C116.155 53.2374 117.235 53.2463 117.893 53.2641C120.188 53.2641 122.045 53.2195 123.463 53.1304C124.881 53.0412 126.29 52.8539 127.691 52.5685C129.092 52.2832 130.282 51.8462 131.261 51.2576C132.24 50.669 133.109 49.8931 133.868 48.93C134.223 48.4662 134.569 47.8241 134.906 47.0037H135.919C135.919 47.0215 135.86 47.2088 135.742 47.5655C135.624 47.9222 135.413 48.5019 135.109 49.3045C134.805 50.1072 134.544 50.8563 134.324 51.5519L132.856 55.6988L117.64 55.7255C107.479 55.7255 102.373 55.7077 102.323 55.672C102.221 55.6363 102.171 55.5561 102.171 55.4312C102.171 55.3955 102.188 55.342 102.221 55.2707L115.716 38.9507C115.716 38.9329 115.437 38.5316 114.88 37.7468C114.323 36.962 113.437 35.6778 112.222 33.8942C111.007 32.1106 109.91 30.5232 108.931 29.132L102.196 19.3667L102.171 18.9654C102.171 18.5909 102.213 18.3768 102.297 18.3233Z" fill="black"/>
<path d="M107.824 61.4429C107.824 61.1402 107.937 60.8754 108.164 60.6484C108.391 60.4214 108.653 60.3017 108.952 60.289C109.166 60.289 109.345 60.3647 109.489 60.516C109.632 60.6673 109.709 60.8565 109.721 61.0835C109.721 61.3735 109.602 61.6383 109.363 61.8779C109.125 62.1175 108.862 62.2436 108.576 62.2562C108.397 62.2562 108.23 62.1932 108.074 62.0671C107.919 61.941 107.836 61.7329 107.824 61.4429ZM104.906 67.3633C104.906 67.2624 104.96 67.067 105.067 66.7769C105.175 66.4869 105.318 66.1653 105.497 65.8123C105.676 65.4592 105.938 65.1376 106.285 64.8476C106.631 64.5576 106.989 64.4188 107.358 64.4315C107.824 64.4315 108.212 64.5765 108.522 64.8665C108.832 65.1565 108.993 65.5474 109.005 66.0392C109.005 66.2536 108.922 66.6067 108.755 67.0985C108.588 67.5903 108.349 68.2523 108.039 69.0846C107.728 69.9168 107.478 70.6293 107.287 71.222C107.227 71.4994 107.197 71.7012 107.197 71.8273C107.197 72.1425 107.299 72.3001 107.502 72.3001C107.609 72.3001 107.722 72.2812 107.842 72.2434C107.961 72.2056 108.098 72.1173 108.253 71.9786C108.409 71.8399 108.57 71.6192 108.737 71.3166C108.904 71.0139 109.053 70.6419 109.184 70.2006C109.22 70.0492 109.25 69.961 109.274 69.9358C109.298 69.9105 109.399 69.8979 109.578 69.8979C109.817 69.8979 109.936 69.961 109.936 70.0871C109.936 70.188 109.882 70.3834 109.775 70.6734C109.668 70.9635 109.518 71.285 109.327 71.6381C109.137 71.9912 108.868 72.3064 108.522 72.5839C108.176 72.8613 107.806 73 107.412 73C107.03 73 106.678 72.8676 106.356 72.6028C106.034 72.338 105.867 71.9344 105.855 71.3922C105.855 71.1778 105.885 70.9761 105.944 70.7869C106.004 70.5978 106.261 69.879 106.714 68.6306C107.168 67.357 107.43 66.5941 107.502 66.3419C107.573 66.0897 107.615 65.8438 107.627 65.6042C107.627 65.3015 107.526 65.1502 107.323 65.1502H107.287C106.929 65.1502 106.601 65.3583 106.302 65.7744C106.004 66.1906 105.777 66.7202 105.622 67.3633C105.61 67.3759 105.598 67.3948 105.586 67.42C105.575 67.4453 105.569 67.4642 105.569 67.4768C105.569 67.4894 105.557 67.502 105.533 67.5146C105.509 67.5272 105.491 67.5335 105.479 67.5335C105.467 67.5335 105.443 67.5335 105.407 67.5335C105.372 67.5335 105.324 67.5335 105.264 67.5335H105.014C104.942 67.4579 104.906 67.4011 104.906 67.3633Z" fill="black"/>
<path d="M111.708 66.2284C111.708 66.0645 111.792 65.9384 111.959 65.8501H123.361C123.54 65.951 123.629 66.0771 123.629 66.2284C123.629 66.3671 123.546 66.4869 123.379 66.5878L117.687 66.6067H111.994C111.804 66.5436 111.708 66.4175 111.708 66.2284ZM111.708 69.8979C111.708 69.7088 111.804 69.5827 111.994 69.5196H123.379C123.546 69.6457 123.629 69.7718 123.629 69.8979C123.629 70.0619 123.54 70.188 123.361 70.2762H111.959C111.792 70.188 111.708 70.0619 111.708 69.8979Z" fill="black"/>
<path d="M128.444 61.859L128.211 61.9536C128.044 62.0166 127.806 62.0797 127.495 62.1427C127.185 62.2058 126.839 62.2499 126.457 62.2751H126.117V61.405H126.457C127.018 61.3798 127.537 61.2853 128.015 61.1213C128.492 60.9574 128.826 60.8061 129.017 60.6674C129.208 60.5286 129.375 60.3899 129.518 60.2512C129.542 60.2134 129.614 60.1945 129.733 60.1945C129.84 60.1945 129.942 60.2323 130.037 60.308V65.9636L130.055 71.6381C130.139 71.7264 130.21 71.7831 130.27 71.8084C130.33 71.8336 130.473 71.8588 130.7 71.884C130.926 71.9092 131.296 71.9219 131.809 71.9219H132.275V72.7919H132.078C131.827 72.7541 130.879 72.7352 129.232 72.7352C127.609 72.7352 126.672 72.7541 126.422 72.7919H126.207V71.9219H126.672C126.935 71.9219 127.161 71.9219 127.352 71.9219C127.543 71.9219 127.692 71.9155 127.8 71.9029C127.907 71.8903 128.003 71.8714 128.086 71.8462C128.17 71.821 128.217 71.8084 128.229 71.8084C128.241 71.8084 128.277 71.7768 128.337 71.7138C128.396 71.6507 128.432 71.6255 128.444 71.6381V61.859Z" fill="black"/>
<path d="M115.296 0.870106C115.261 0.870106 115.213 0.870106 115.153 0.870106C114.855 0.870106 114.676 0.863801 114.616 0.851191C114.557 0.838581 114.527 0.769226 114.527 0.643125C114.527 0.302653 114.592 0.0945864 114.724 0.0189259C114.747 0.00631587 115.326 1.08276e-05 116.46 1.08276e-05C117.379 1.08276e-05 117.904 1.08276e-05 118.035 1.08276e-05C118.166 1.08276e-05 118.25 0.0378411 118.286 0.113502C120.803 6.3681 122.086 9.57737 122.134 9.7413L123.101 5.71238C123.733 3.05165 124.049 1.63302 124.049 1.45647C124.049 1.116 123.667 0.920547 122.904 0.870106C122.617 0.870106 122.474 0.800751 122.474 0.66204C122.474 0.63682 122.486 0.561159 122.51 0.435059C122.558 0.233297 122.593 0.113502 122.617 0.0756713C122.641 0.0378411 122.701 0.0126209 122.796 1.08276e-05C122.832 1.08276e-05 123.017 0.00631587 123.351 0.0189259C123.685 0.031536 124.181 0.0441461 124.837 0.0567562C125.433 0.0567562 125.887 0.0504511 126.197 0.0378411C126.507 0.025231 126.686 0.0189259 126.734 0.0189259C126.913 0.0189259 127.003 0.0819763 127.003 0.208077C127.003 0.485499 126.955 0.67465 126.859 0.775531C126.836 0.838581 126.704 0.870106 126.466 0.870106C125.618 0.920547 125.087 1.17275 124.873 1.62671L122.206 12.7866C122.182 12.8749 122.056 12.919 121.83 12.919C121.663 12.919 121.561 12.9064 121.525 12.8812C121.49 12.8434 120.72 10.9329 119.216 7.14993L116.943 1.49431L115.78 6.41224C115.004 9.64042 114.616 11.3113 114.616 11.4247C114.676 11.8409 115.105 12.0489 115.905 12.0489H116.084C116.156 12.112 116.191 12.1624 116.191 12.2003C116.191 12.2381 116.179 12.3579 116.156 12.5596C116.108 12.7236 116.048 12.8434 115.977 12.919H115.744C115.374 12.8938 114.73 12.8812 113.811 12.8812C113.477 12.8812 113.172 12.8812 112.898 12.8812C112.623 12.8812 112.403 12.8812 112.236 12.8812C112.068 12.8812 111.967 12.8875 111.931 12.9001C111.752 12.9001 111.663 12.8434 111.663 12.7299C111.663 12.6794 111.681 12.5786 111.716 12.4272C111.752 12.2759 111.782 12.1877 111.806 12.1624C111.83 12.0868 111.967 12.0489 112.218 12.0489C113.029 12.0111 113.554 11.7652 113.793 11.3113C113.841 11.2356 114.264 9.4891 115.064 6.07176L116.281 0.926852C116.257 0.914242 115.929 0.895326 115.296 0.870106Z" fill="black"/>
</svg>
