<svg width="252" height="73" viewBox="0 0 252 73" fill="none" xmlns="http://www.w3.org/2000/svg">
<path d="M3.93583 55.985C2.76966 55.985 1.82643 55.6193 1.10615 54.888C0.385865 54.1566 0.0171496 53.2384 0 52.1332C0 50.508 0.625959 48.9966 1.87788 47.5989C3.1298 46.2012 4.58751 45.4129 6.25102 45.2342C6.26817 45.2179 7.46864 45.2098 9.85243 45.2098H13.4024C13.4195 45.226 13.4453 45.2423 13.4796 45.2585C13.5139 45.2748 13.5482 45.291 13.5825 45.3073C13.6168 45.3235 13.6425 45.3398 13.6596 45.3561C13.6768 45.3723 13.7025 45.3967 13.7368 45.4292C13.7711 45.4617 13.7883 45.4779 13.7883 45.4779C13.7883 45.4779 13.8054 45.5105 13.8397 45.5755C13.874 45.6405 13.8826 45.673 13.8654 45.673C13.8483 45.673 13.8569 45.7136 13.8912 45.7949C13.9255 45.8761 13.934 45.9249 13.9169 45.9411C13.9169 46.6562 13.3595 47.0138 12.2448 47.0138C12.1247 47.0138 11.979 47.0138 11.8075 47.0138C11.636 47.0138 11.5159 47.0057 11.4473 46.9894H9.90388L10.0325 47.2332C10.3412 47.8508 10.4955 48.5415 10.4955 49.3053C10.4955 51.0931 9.80956 52.6533 8.43759 53.986C7.06562 55.3187 5.56504 55.985 3.93583 55.985ZM8.48904 48.9397C8.48904 47.6395 7.76018 46.9894 6.30247 46.9894C4.17592 46.9894 2.79538 48.4033 2.16085 51.2312C2.1437 51.2962 2.13512 51.345 2.13512 51.3775C1.99793 51.9788 1.92933 52.4745 1.92933 52.8646C1.92933 53.6772 2.1437 54.246 2.57244 54.5711C3.00118 54.8961 3.48994 55.0668 4.03872 55.083C4.9648 55.083 5.81371 54.7011 6.58544 53.9372C7.08277 53.4497 7.48579 52.7996 7.79448 51.987C8.10317 51.1744 8.29182 50.5243 8.36042 50.0367C8.42902 49.5491 8.47189 49.1835 8.48904 48.9397Z" fill="black"/>
<path d="M22.478 47.2576C22.478 47.0463 22.598 46.8838 22.8381 46.77H39.2245C39.4818 46.9 39.6104 47.0625 39.6104 47.2576C39.6104 47.4363 39.4903 47.5907 39.2502 47.7208L31.0699 47.7451H22.8895C22.6151 47.6639 22.478 47.5014 22.478 47.2576ZM22.478 51.987C22.478 51.7432 22.6151 51.5807 22.8895 51.4994H39.2502C39.4903 51.6619 39.6104 51.8245 39.6104 51.987C39.6104 52.1983 39.4818 52.3608 39.2245 52.4745H22.8381C22.598 52.3608 22.478 52.1983 22.478 51.987Z" fill="black"/>
<path d="M66.0262 0.377381C66.0968 0.18869 66.238 0.0628957 66.4499 -1.48267e-06H75.5329C75.7977 0.125793 75.9301 0.283036 75.9301 0.471727C75.9301 0.676143 75.7977 0.833386 75.5329 0.943456H67.0854V14.2698C66.9442 14.4899 66.7853 14.6 66.6088 14.6H66.5558H66.5029C66.291 14.6 66.1321 14.4899 66.0262 14.2698V0.377381Z" fill="black"/>
<path d="M67.1266 72.6551C67.0918 72.6879 67.0482 72.729 66.9958 72.7782C66.9435 72.8275 66.9086 72.8604 66.8912 72.8768C66.8738 72.8932 66.8476 72.9097 66.8127 72.9261C66.7778 72.9425 66.7255 72.9589 66.6558 72.9754C66.586 72.9918 66.4988 73 66.3942 73H66.0803L53.5238 37.175L52.4251 39.2693C51.6926 40.6655 51.3177 41.3636 51.3002 41.3636C51.1956 41.2815 51.0822 41.1747 50.9602 41.0433L50.6201 40.723L54.6486 33.0603L66.0803 65.633V47.0552L66.1064 28.4774C66.2808 28.2639 66.4465 28.1571 66.6034 28.1571C66.8127 28.1571 66.9871 28.2803 67.1266 28.5267V72.6551Z" fill="black"/>
<g clip-path="url(#clip0_5_189)">
<path d="M66.5407 65.8914H66.4892C66.2834 65.8914 66.1291 65.433 66.0262 64.5163V34.4609L66.0519 4.40543C66.2234 3.55419 66.3863 3.12856 66.5407 3.12856C66.7465 3.12856 66.918 3.61967 67.0552 4.60187V64.5163C66.918 65.433 66.7636 65.8914 66.5921 65.8914H66.5407Z" fill="black"/>
</g>
<path d="M252 0H74.8297V1.04286H252V0Z" fill="black"/>
<path d="M119.182 27.2872C119.238 27.2523 123.173 27.2349 130.987 27.2349H142.682L143.813 30.1101C144.015 30.6503 144.217 31.1818 144.419 31.7045C144.622 32.2273 144.778 32.6281 144.888 32.9069C144.999 33.1857 145.054 33.3338 145.054 33.3512H144.502L143.95 33.3251C143.528 32.2447 142.856 31.3386 141.937 30.6067C141.018 29.8749 140.016 29.3434 138.931 29.0123C137.956 28.6986 136.834 28.4983 135.566 28.4111C134.297 28.324 132.284 28.2804 129.525 28.2804H126.298C123.798 28.2804 122.547 28.2891 122.547 28.3066C122.603 28.3589 124.12 30.3192 127.098 34.1876C130.077 38.0561 131.576 40.0164 131.594 40.0687C131.704 40.2255 131.723 40.3562 131.649 40.4608L131.015 41.1926C130.574 41.6806 129.93 42.395 129.084 43.336C128.238 44.2769 127.411 45.2092 126.602 46.1327L121.61 51.7263C121.61 51.7437 123.568 51.7524 127.484 51.7524C127.962 51.7524 128.643 51.7524 129.525 51.7524C130.408 51.7524 131.052 51.7611 131.456 51.7786C134.637 51.7786 137.138 51.5433 138.958 51.0728C140.779 50.6024 142.231 49.5655 143.316 47.9624C143.5 47.6836 143.711 47.2567 143.95 46.6816H145.054L142.682 53.3469L130.987 53.373C123.191 53.373 119.265 53.3556 119.21 53.3207C119.1 53.2859 119.045 53.2075 119.045 53.0855C119.045 52.9983 119.615 52.3188 120.755 51.0467C122.005 49.6527 123.173 48.3458 124.257 47.126L129.305 41.454C129.305 41.4366 127.595 39.2062 124.175 34.7627L119.072 28.0975L119.045 27.81C119.045 27.5311 119.091 27.3569 119.182 27.2872Z" fill="black"/>
<path d="M119.825 58.9587C119.825 58.663 119.948 58.4043 120.195 58.1826C120.442 57.9608 120.728 57.8438 121.053 57.8314C121.287 57.8314 121.482 57.9054 121.638 58.0532C121.794 58.201 121.879 58.3858 121.892 58.6076C121.892 58.8909 121.762 59.1497 121.502 59.3837C121.242 59.6178 120.956 59.741 120.644 59.7533C120.449 59.7533 120.267 59.6917 120.098 59.5685C119.929 59.4453 119.838 59.2421 119.825 58.9587ZM116.646 64.7428C116.646 64.6443 116.705 64.4533 116.822 64.17C116.939 63.8866 117.095 63.5725 117.29 63.2275C117.485 62.8825 117.771 62.5684 118.148 62.285C118.525 62.0017 118.915 61.8662 119.318 61.8785C119.825 61.8785 120.247 62.0202 120.585 62.3035C120.923 62.5869 121.099 62.9688 121.112 63.4493C121.112 63.6587 121.021 64.0036 120.839 64.4841C120.657 64.9646 120.397 65.6114 120.059 66.4245C119.721 67.2376 119.448 67.9336 119.24 68.5127C119.175 68.7837 119.142 68.9808 119.142 69.104C119.142 69.412 119.253 69.566 119.474 69.566C119.591 69.566 119.714 69.5475 119.844 69.5106C119.974 69.4736 120.124 69.3874 120.293 69.2519C120.462 69.1163 120.637 68.9007 120.819 68.6051C121.001 68.3094 121.164 67.946 121.307 67.5148C121.346 67.3669 121.378 67.2807 121.404 67.2561C121.43 67.2314 121.541 67.2191 121.736 67.2191C121.996 67.2191 122.126 67.2807 122.126 67.4039C122.126 67.5025 122.067 67.6934 121.95 67.9768C121.833 68.2601 121.671 68.5743 121.463 68.9192C121.255 69.2642 120.962 69.5722 120.585 69.8432C120.208 70.1142 119.805 70.2498 119.376 70.2498C118.96 70.2498 118.577 70.1204 118.226 69.8617C117.875 69.603 117.693 69.2087 117.68 68.679C117.68 68.4696 117.712 68.2724 117.777 68.0876C117.842 67.9028 118.122 67.2006 118.616 65.981C119.11 64.7367 119.396 63.9913 119.474 63.7449C119.552 63.4985 119.597 63.2583 119.61 63.0242C119.61 62.7285 119.5 62.5807 119.279 62.5807H119.24C118.85 62.5807 118.492 62.784 118.167 63.1905C117.842 63.5971 117.595 64.1145 117.426 64.7428C117.413 64.7551 117.4 64.7736 117.387 64.7983C117.374 64.8229 117.368 64.8414 117.368 64.8537C117.368 64.866 117.355 64.8783 117.329 64.8907C117.303 64.903 117.283 64.9091 117.27 64.9091C117.257 64.9091 117.231 64.9091 117.192 64.9091C117.153 64.9091 117.101 64.9091 117.036 64.9091H116.763C116.685 64.8352 116.646 64.7798 116.646 64.7428Z" fill="black"/>
<path d="M124.056 63.634C124.056 63.4739 124.147 63.3507 124.329 63.2645H136.751C136.946 63.363 137.043 63.4862 137.043 63.634C137.043 63.7696 136.952 63.8866 136.77 63.9852L130.569 64.0036H124.368C124.16 63.942 124.056 63.8188 124.056 63.634ZM124.056 67.2191C124.056 67.0343 124.16 66.9111 124.368 66.8495H136.77C136.952 66.9727 137.043 67.0959 137.043 67.2191C137.043 67.3792 136.946 67.5024 136.751 67.5887H124.329C124.147 67.5024 124.056 67.3792 124.056 67.2191Z" fill="black"/>
<path d="M142.289 59.3653L142.035 59.4577C141.853 59.5193 141.593 59.5809 141.255 59.6425C140.917 59.704 140.54 59.7472 140.124 59.7718H139.754V58.9217H140.124C140.735 58.8971 141.301 58.8047 141.821 58.6446C142.341 58.4844 142.705 58.3366 142.913 58.201C143.121 58.0655 143.303 57.93 143.459 57.7945C143.485 57.7575 143.563 57.739 143.693 57.739C143.81 57.739 143.92 57.776 144.024 57.8499V63.3753L144.044 68.9192C144.135 69.0055 144.213 69.0609 144.278 69.0855C144.343 69.1102 144.499 69.1348 144.746 69.1595C144.993 69.1841 145.396 69.1964 145.955 69.1964H146.462V70.0465H146.247C145.974 70.0095 144.941 69.991 143.147 69.991C141.379 69.991 140.358 70.0095 140.085 70.0465H139.851V69.1964H140.358C140.644 69.1964 140.891 69.1964 141.099 69.1964C141.307 69.1964 141.47 69.1903 141.587 69.1779C141.704 69.1656 141.808 69.1471 141.899 69.1225C141.99 69.0979 142.042 69.0855 142.055 69.0855C142.068 69.0855 142.107 69.0547 142.172 68.9931C142.237 68.9315 142.276 68.9069 142.289 68.9192V59.3653Z" fill="black"/>
<path d="M127.968 10.2358C127.929 10.2358 127.877 10.2358 127.812 10.2358C127.487 10.2358 127.292 10.2296 127.227 10.2173C127.162 10.205 127.13 10.1372 127.13 10.014C127.13 9.6814 127.201 9.47812 127.344 9.4042C127.37 9.39188 128.001 9.38572 129.236 9.38572C130.237 9.38572 130.809 9.38572 130.952 9.38572C131.095 9.38572 131.186 9.42268 131.225 9.4966C133.968 15.6072 135.365 18.7426 135.417 18.9027L136.47 14.9666C137.159 12.3671 137.504 10.9811 137.504 10.8087C137.504 10.476 137.088 10.2851 136.256 10.2358C135.944 10.2358 135.788 10.168 135.788 10.0325C135.788 10.0079 135.801 9.93395 135.827 9.81075C135.879 9.61364 135.918 9.4966 135.944 9.45964C135.97 9.42268 136.035 9.39804 136.139 9.38572C136.178 9.38572 136.379 9.39188 136.743 9.4042C137.107 9.41652 137.647 9.42884 138.362 9.44116C139.012 9.44116 139.506 9.435 139.844 9.42268C140.182 9.41036 140.377 9.4042 140.429 9.4042C140.624 9.4042 140.721 9.4658 140.721 9.589C140.721 9.86003 140.669 10.0448 140.565 10.1434C140.539 10.205 140.396 10.2358 140.136 10.2358C139.213 10.2851 138.635 10.5315 138.401 10.975L135.495 21.8779C135.469 21.9642 135.333 22.0073 135.086 22.0073C134.904 22.0073 134.793 21.995 134.754 21.9703C134.715 21.9334 133.877 20.0669 132.239 16.371L129.762 10.8456L128.495 15.6503C127.65 18.8042 127.227 20.4365 127.227 20.5474C127.292 20.954 127.76 21.1572 128.631 21.1572H128.826C128.904 21.2188 128.943 21.2681 128.943 21.3051C128.943 21.342 128.93 21.4591 128.904 21.6562C128.852 21.8163 128.787 21.9334 128.709 22.0073H128.456C128.053 21.9827 127.351 21.9703 126.35 21.9703C125.986 21.9703 125.654 21.9703 125.355 21.9703C125.056 21.9703 124.816 21.9703 124.634 21.9703C124.452 21.9703 124.341 21.9765 124.302 21.9888C124.107 21.9888 124.01 21.9334 124.01 21.8225C124.01 21.7732 124.029 21.6747 124.068 21.5268C124.107 21.379 124.14 21.2928 124.166 21.2681C124.192 21.1942 124.341 21.1572 124.614 21.1572C125.498 21.1203 126.07 20.88 126.33 20.4365C126.382 20.3626 126.844 18.6563 127.715 15.3177L129.041 10.2912C129.015 10.2789 128.657 10.2604 127.968 10.2358Z" fill="black"/>
<path d="M150.482 40.304C150.482 39.1016 150.574 37.9602 150.757 36.8799C150.941 35.7995 151.153 34.8672 151.392 34.0831C151.631 33.2989 151.971 32.5322 152.412 31.7829C152.854 31.0336 153.203 30.4499 153.46 30.0317C153.718 29.6135 154.104 29.1604 154.619 28.6725C155.134 28.1846 155.437 27.8884 155.529 27.7838C155.621 27.6793 155.851 27.4963 156.219 27.2349H156.577H156.687C156.945 27.2349 157.074 27.3133 157.074 27.4702C157.074 27.5224 156.917 27.7054 156.605 28.0191C156.292 28.3327 155.915 28.7945 155.474 29.4044C155.033 30.0143 154.582 30.7636 154.122 31.6522C153.663 32.5409 153.277 33.7433 152.964 35.2593C152.651 36.7753 152.495 38.4569 152.495 40.304C152.495 42.151 152.651 43.8239 152.964 45.3225C153.277 46.821 153.654 48.0321 154.095 48.9557C154.536 49.8792 154.987 50.6285 155.446 51.2035C155.906 51.7786 156.292 52.2403 156.605 52.5889C156.917 52.9374 157.074 53.1203 157.074 53.1378C157.074 53.2946 156.936 53.373 156.66 53.373H156.577H156.219L155.446 52.7457C153.718 51.2645 152.458 49.4174 151.668 47.2044C150.877 44.9914 150.482 42.6912 150.482 40.304Z" fill="black"/>
<path d="M160.052 39.2846C160.181 38.5527 160.678 37.7076 161.542 36.7492C162.406 35.7908 163.472 35.3029 164.741 35.2854C165.385 35.2854 165.973 35.4423 166.506 35.7559C167.04 36.0696 167.435 36.4617 167.692 36.9321C168.465 35.8343 169.393 35.2854 170.478 35.2854C171.158 35.2854 171.747 35.4771 172.243 35.8605C172.74 36.2438 172.997 36.7579 173.016 37.4026C173.016 37.908 172.887 38.3175 172.629 38.6311C172.372 38.9448 172.124 39.1365 171.885 39.2062C171.646 39.2759 171.434 39.3107 171.25 39.3107C170.901 39.3107 170.616 39.2149 170.395 39.0232C170.175 38.8315 170.064 38.5788 170.064 38.2652C170.064 37.4636 170.524 36.9147 171.443 36.6185C171.241 36.392 170.873 36.2787 170.34 36.2787C170.101 36.2787 169.926 36.2961 169.816 36.331C169.117 36.6098 168.603 37.1848 168.272 38.0561C167.168 41.9071 166.617 44.155 166.617 44.7997C166.617 45.2876 166.764 45.6361 167.058 45.8452C167.352 46.0543 167.674 46.1589 168.023 46.1589C168.704 46.1589 169.375 45.8714 170.037 45.2963C170.699 44.7213 171.149 44.0156 171.388 43.1791C171.443 43.0049 171.499 42.9091 171.554 42.8916C171.609 42.8742 171.756 42.8568 171.995 42.8394H172.105C172.381 42.8394 172.519 42.9091 172.519 43.0485C172.519 43.0659 172.501 43.1617 172.464 43.336C172.17 44.3292 171.6 45.2092 170.754 45.9759C169.908 46.7426 168.924 47.126 167.803 47.126C166.516 47.126 165.541 46.5771 164.879 45.4793C164.125 46.5597 163.261 47.0999 162.286 47.0999H162.121C161.22 47.0999 160.576 46.8733 160.19 46.4203C159.804 45.9672 159.602 45.488 159.583 44.9827C159.583 44.4251 159.758 43.972 160.108 43.6235C160.457 43.275 160.871 43.1007 161.349 43.1007C162.139 43.1007 162.535 43.4667 162.535 44.1985C162.535 44.547 162.424 44.852 162.204 45.1134C161.983 45.3747 161.772 45.549 161.569 45.6361C161.367 45.7233 161.248 45.7668 161.211 45.7668L161.128 45.793C161.128 45.8104 161.183 45.8452 161.294 45.8975C161.404 45.9498 161.551 46.0108 161.735 46.0805C161.919 46.1502 162.093 46.1763 162.259 46.1589C162.921 46.1589 163.491 45.7668 163.969 44.9827C164.134 44.7039 164.346 44.1114 164.603 43.2053C164.861 42.2992 165.118 41.3582 165.376 40.3824C165.633 39.4065 165.78 38.8315 165.817 38.6573C165.909 38.1868 165.955 37.847 165.955 37.6379C165.955 37.15 165.817 36.8015 165.541 36.5923C165.265 36.3832 164.953 36.2787 164.603 36.2787C163.868 36.2787 163.178 36.5575 162.535 37.1151C161.891 37.6727 161.441 38.3872 161.183 39.2584C161.146 39.4153 161.1 39.5024 161.045 39.5198C160.99 39.5372 160.843 39.5547 160.604 39.5721H160.218C160.108 39.4675 160.052 39.3717 160.052 39.2846Z" fill="black"/>
<path d="M177.983 39.6714C177.983 39.3757 178.106 39.117 178.353 38.8953C178.6 38.6735 178.886 38.5565 179.211 38.5442C179.445 38.5442 179.64 38.6181 179.796 38.7659C179.952 38.9137 180.037 39.0985 180.05 39.3203C180.05 39.6037 179.92 39.8624 179.66 40.0964C179.4 40.3305 179.114 40.4537 178.802 40.466C178.607 40.466 178.425 40.4044 178.256 40.2812C178.087 40.158 177.996 39.9548 177.983 39.6714ZM174.804 45.4555C174.804 45.357 174.863 45.166 174.98 44.8827C175.097 44.5993 175.253 44.2852 175.448 43.9402C175.643 43.5952 175.929 43.2811 176.306 42.9977C176.683 42.7144 177.073 42.5789 177.476 42.5912C177.983 42.5912 178.405 42.7329 178.743 43.0162C179.081 43.2996 179.257 43.6815 179.27 44.162C179.27 44.3714 179.179 44.7163 178.997 45.1968C178.815 45.6773 178.555 46.3241 178.217 47.1372C177.879 47.9503 177.606 48.6463 177.398 49.2254C177.333 49.4964 177.3 49.6935 177.3 49.8167C177.3 50.1247 177.411 50.2787 177.632 50.2787C177.749 50.2787 177.872 50.2602 178.002 50.2233C178.132 50.1863 178.282 50.1001 178.451 49.9646C178.62 49.829 178.795 49.6134 178.977 49.3178C179.159 49.0221 179.322 48.6587 179.465 48.2275C179.504 48.0796 179.536 47.9934 179.562 47.9688C179.588 47.9441 179.699 47.9318 179.894 47.9318C180.154 47.9318 180.284 47.9934 180.284 48.1166C180.284 48.2152 180.225 48.4061 180.108 48.6895C179.991 48.9728 179.829 49.287 179.621 49.6319C179.413 49.9769 179.12 50.2849 178.743 50.5559C178.366 50.8269 177.963 50.9625 177.534 50.9625C177.118 50.9625 176.735 50.8331 176.384 50.5744C176.033 50.3157 175.851 49.9214 175.838 49.3917C175.838 49.1823 175.87 48.9851 175.935 48.8003C176 48.6155 176.28 47.9133 176.774 46.6937C177.268 45.4494 177.554 44.704 177.632 44.4576C177.71 44.2112 177.755 43.971 177.768 43.7369C177.768 43.4413 177.658 43.2934 177.437 43.2934H177.398C177.008 43.2934 176.65 43.4967 176.325 43.9032C176 44.3098 175.753 44.8272 175.584 45.4555C175.571 45.4679 175.558 45.4863 175.545 45.511C175.532 45.5356 175.526 45.5541 175.526 45.5664C175.526 45.5787 175.513 45.591 175.487 45.6034C175.461 45.6157 175.441 45.6218 175.428 45.6218C175.415 45.6218 175.389 45.6218 175.35 45.6218C175.311 45.6218 175.259 45.6218 175.194 45.6218H174.921C174.843 45.5479 174.804 45.4925 174.804 45.4555Z" fill="black"/>
<path d="M190.949 40.6438C190.949 40.6438 190.949 40.5305 190.949 40.304C190.949 40.0774 191.078 39.9032 191.335 39.7812H207.36C207.636 39.9206 207.773 40.0949 207.773 40.304C207.773 40.5131 207.636 40.6873 207.36 40.8267H191.335C191.078 40.7047 190.949 40.5305 190.949 40.304V40.6438Z" fill="black"/>
<path d="M217.653 39.2846C217.782 38.5527 218.278 37.7076 219.142 36.7492C220.007 35.7908 221.073 35.3029 222.342 35.2854C222.985 35.2854 223.574 35.4423 224.107 35.7559C224.64 36.0696 225.036 36.4617 225.293 36.9321C226.065 35.8343 226.994 35.2854 228.079 35.2854C228.759 35.2854 229.347 35.4771 229.844 35.8605C230.34 36.2438 230.598 36.7579 230.616 37.4026C230.616 37.908 230.488 38.3175 230.23 38.6311C229.973 38.9448 229.724 39.1365 229.485 39.2062C229.246 39.2759 229.035 39.3107 228.851 39.3107C228.502 39.3107 228.217 39.2149 227.996 39.0232C227.775 38.8315 227.665 38.5788 227.665 38.2652C227.665 37.4636 228.125 36.9147 229.044 36.6185C228.842 36.392 228.474 36.2787 227.941 36.2787C227.702 36.2787 227.527 36.2961 227.417 36.331C226.718 36.6098 226.203 37.1848 225.872 38.0561C224.769 41.9071 224.217 44.155 224.217 44.7997C224.217 45.2876 224.364 45.6361 224.659 45.8452C224.953 46.0543 225.275 46.1589 225.624 46.1589C226.304 46.1589 226.976 45.8714 227.637 45.2963C228.299 44.7213 228.75 44.0156 228.989 43.1791C229.044 43.0049 229.099 42.9091 229.154 42.8916C229.21 42.8742 229.357 42.8568 229.596 42.8394H229.706C229.982 42.8394 230.12 42.9091 230.12 43.0485C230.12 43.0659 230.101 43.1617 230.065 43.336C229.77 44.3292 229.2 45.2092 228.355 45.9759C227.509 46.7426 226.525 47.126 225.403 47.126C224.116 47.126 223.142 46.5771 222.48 45.4793C221.726 46.5597 220.862 47.0999 219.887 47.0999H219.722C218.821 47.0999 218.177 46.8733 217.791 46.4203C217.405 45.9672 217.203 45.488 217.184 44.9827C217.184 44.4251 217.359 43.972 217.708 43.6235C218.058 43.275 218.471 43.1007 218.949 43.1007C219.74 43.1007 220.135 43.4667 220.135 44.1985C220.135 44.547 220.025 44.852 219.804 45.1134C219.584 45.3747 219.372 45.549 219.17 45.6361C218.968 45.7233 218.848 45.7668 218.811 45.7668L218.729 45.793C218.729 45.8104 218.784 45.8452 218.894 45.8975C219.005 45.9498 219.152 46.0108 219.335 46.0805C219.519 46.1502 219.694 46.1763 219.86 46.1589C220.521 46.1589 221.092 45.7668 221.57 44.9827C221.735 44.7039 221.947 44.1114 222.204 43.2053C222.461 42.2992 222.719 41.3582 222.976 40.3824C223.234 39.4065 223.381 38.8315 223.418 38.6573C223.509 38.1868 223.555 37.847 223.555 37.6379C223.555 37.15 223.418 36.8015 223.142 36.5923C222.866 36.3832 222.553 36.2787 222.204 36.2787C221.468 36.2787 220.779 36.5575 220.135 37.1151C219.492 37.6727 219.041 38.3872 218.784 39.2584C218.747 39.4153 218.701 39.5024 218.646 39.5198C218.591 39.5372 218.444 39.5547 218.205 39.5721H217.819C217.708 39.4675 217.653 39.3717 217.653 39.2846Z" fill="black"/>
<path d="M215.541 33.0509V32.2008H232.626V33.0509H215.541Z" fill="black"/>
<path d="M233.65 27.2611L233.76 27.2349C233.852 27.2349 233.944 27.2349 234.036 27.2349H234.367L235.14 27.8622C236.868 29.3434 238.128 31.1905 238.918 33.4035C239.709 35.6165 240.104 37.9167 240.104 40.304C240.104 41.4889 240.012 42.6302 239.828 43.728C239.644 44.8258 239.433 45.7581 239.194 46.5248C238.955 47.2915 238.615 48.0583 238.173 48.825C237.732 49.5917 237.383 50.1754 237.125 50.5762C236.868 50.977 236.491 51.4214 235.995 51.9093C235.498 52.3972 235.204 52.6847 235.112 52.7718C235.02 52.8589 234.809 53.0245 234.478 53.2684C234.422 53.3207 234.386 53.3556 234.367 53.373H234.036C233.889 53.373 233.788 53.373 233.733 53.373C233.678 53.373 233.632 53.3469 233.595 53.2946C233.558 53.2423 233.531 53.1639 233.512 53.0593C233.531 53.0419 233.632 52.9286 233.816 52.7195C236.666 49.9141 238.091 45.7755 238.091 40.304C238.091 34.8324 236.666 30.6939 233.816 27.8884C233.632 27.6793 233.531 27.566 233.512 27.5486C233.512 27.4092 233.558 27.3133 233.65 27.2611Z" fill="black"/>
<path d="M247.222 28.5104H242.326V27.4844L244.666 25.5944C245.014 25.3064 245.284 25.0244 245.476 24.7484C245.68 24.4604 245.782 24.1544 245.782 23.8304V23.7224C245.782 23.4104 245.68 23.1644 245.476 22.9844C245.284 22.7924 244.996 22.6964 244.612 22.6964C244.192 22.6964 243.874 22.7984 243.658 23.0024C243.454 23.2064 243.304 23.4524 243.208 23.7404L242.236 23.3804C242.308 23.1644 242.404 22.9604 242.524 22.7684C242.656 22.5764 242.818 22.4084 243.01 22.2644C243.214 22.1084 243.454 21.9884 243.73 21.9044C244.006 21.8084 244.324 21.7604 244.684 21.7604C245.428 21.7604 245.998 21.9464 246.394 22.3184C246.79 22.6784 246.988 23.1464 246.988 23.7224C246.988 24.2504 246.826 24.7124 246.502 25.1084C246.19 25.4924 245.782 25.8764 245.278 26.2604L243.532 27.6104H247.222V28.5104Z" fill="black"/>
<path d="M84.039 21.6911L83.7464 21.7978C83.5363 21.8689 83.2363 21.9399 82.8462 22.011C82.4561 22.0821 82.021 22.1319 81.5409 22.1603H81.1133V21.1793H81.5409C82.246 21.1508 82.8987 21.0442 83.4988 20.8593C84.099 20.6745 84.5191 20.5039 84.7591 20.3475C84.9992 20.1911 85.2092 20.0347 85.3893 19.8783C85.4193 19.8356 85.5093 19.8143 85.6593 19.8143C85.7944 19.8143 85.9219 19.8569 86.0419 19.9423V26.3192L86.0644 32.7175C86.1694 32.817 86.2595 32.881 86.3345 32.9095C86.4095 32.9379 86.5895 32.9663 86.8746 32.9948C87.1597 33.0232 87.6248 33.0374 88.2699 33.0374H88.8551V34.0185H88.6075C88.2924 33.9758 87.0997 33.9545 85.0292 33.9545C82.9887 33.9545 81.8109 33.9758 81.4959 34.0185H81.2258V33.0374H81.8109C82.141 33.0374 82.4261 33.0374 82.6661 33.0374C82.9062 33.0374 83.0937 33.0303 83.2288 33.0161C83.3638 33.0019 83.4838 32.9805 83.5888 32.9521C83.6939 32.9237 83.7539 32.9095 83.7689 32.9095C83.7839 32.9095 83.8289 32.8739 83.9039 32.8028C83.9789 32.7317 84.0239 32.7033 84.039 32.7175V21.6911Z" fill="black"/>
<path d="M80.1456 49.481C80.1005 49.481 80.0405 49.481 79.9655 49.481C79.5904 49.481 79.3654 49.4739 79.2904 49.4597C79.2153 49.4455 79.1778 49.3673 79.1778 49.2251C79.1778 48.8412 79.2603 48.6066 79.4254 48.5213C79.4554 48.5071 80.1831 48.5 81.6084 48.5C82.7637 48.5 83.4238 48.5 83.5888 48.5C83.7539 48.5 83.8589 48.5426 83.9039 48.6279C87.0696 55.6803 88.6825 59.2988 88.7425 59.4837L89.9578 54.9409C90.753 51.9408 91.1506 50.3412 91.1506 50.1422C91.1506 49.7583 90.6705 49.5379 89.7103 49.481C89.3502 49.481 89.1701 49.4028 89.1701 49.2464C89.1701 49.218 89.1851 49.1327 89.2151 48.9905C89.2752 48.763 89.3202 48.6279 89.3502 48.5853C89.3802 48.5426 89.4552 48.5142 89.5752 48.5C89.6202 48.5 89.8528 48.5071 90.2729 48.5213C90.693 48.5355 91.3156 48.5497 92.1408 48.5639C92.891 48.5639 93.4611 48.5568 93.8512 48.5426C94.2413 48.5284 94.4664 48.5213 94.5264 48.5213C94.7514 48.5213 94.8639 48.5924 94.8639 48.7346C94.8639 49.0474 94.8039 49.2606 94.6839 49.3744C94.6539 49.4455 94.4889 49.481 94.1888 49.481C93.1235 49.5379 92.4559 49.8223 92.1858 50.3341L88.8326 62.9174C88.8025 63.017 88.645 63.0667 88.3599 63.0667C88.1499 63.0667 88.0224 63.0525 87.9774 63.0241C87.9323 62.9814 86.9646 60.8273 85.0742 56.5618L82.216 50.1848L80.7532 55.73C79.778 59.3699 79.2904 61.2539 79.2904 61.3818C79.3654 61.8511 79.9055 62.0857 80.9107 62.0857H81.1358C81.2258 62.1567 81.2708 62.2136 81.2708 62.2563C81.2708 62.2989 81.2558 62.434 81.2258 62.6615C81.1658 62.8463 81.0908 62.9814 81.0007 63.0667H80.7082C80.2431 63.0383 79.4329 63.0241 78.2776 63.0241C77.8575 63.0241 77.4749 63.0241 77.1299 63.0241C76.7848 63.0241 76.5072 63.0241 76.2972 63.0241C76.0871 63.0241 75.9596 63.0312 75.9146 63.0454C75.6895 63.0454 75.577 62.9814 75.577 62.8535C75.577 62.7966 75.5995 62.6828 75.6445 62.5122C75.6895 62.3416 75.727 62.2421 75.757 62.2136C75.787 62.1283 75.9596 62.0857 76.2747 62.0857C77.2949 62.043 77.955 61.7657 78.2551 61.2539C78.3151 61.1686 78.8478 59.1993 79.853 55.3461L81.3833 49.545C81.3533 49.5308 80.9407 49.5095 80.1456 49.481Z" fill="black"/>
<path d="M97.1145 43.7439H72.6288V42.4642H97.1145V43.7439Z" fill="black"/>
<path d="M106.571 43.1041C106.571 42.7628 106.699 42.4642 106.954 42.2083C107.209 41.9524 107.531 41.8244 107.921 41.8244C108.282 41.8244 108.597 41.9381 108.867 42.1656C109.137 42.3931 109.279 42.6988 109.294 43.0827C109.294 43.4382 109.167 43.7439 108.912 43.9998C108.657 44.2557 108.334 44.3837 107.944 44.3837C107.554 44.3837 107.231 44.2629 106.976 44.0211C106.721 43.7794 106.586 43.4737 106.571 43.1041Z" fill="black"/>
<defs>
<clipPath id="clip0_5_189">
<rect width="27.1649" height="41.843" fill="white" transform="matrix(1 0 0 -1 48.1972 55.7169)"/>
</clipPath>
</defs>
</svg>
