<svg width="269" height="67" viewBox="0 0 269 67" fill="none" xmlns="http://www.w3.org/2000/svg">
<path d="M4.48659 43.5468C3.15723 43.5468 2.08201 43.1152 1.26094 42.252C0.439862 41.3888 0.0195494 40.305 0 39.0006C0 37.0824 0.713553 35.2985 2.14066 33.6488C3.56777 31.9991 5.22947 31.0688 7.12576 30.8578C7.14531 30.8386 8.51377 30.829 11.2311 30.829H15.2779C15.2974 30.8482 15.3267 30.8674 15.3658 30.8866C15.4049 30.9057 15.444 30.9249 15.4831 30.9441C15.5222 30.9633 15.5516 30.9825 15.5711 31.0017C15.5907 31.0208 15.62 31.0496 15.6591 31.088C15.6982 31.1263 15.7177 31.1455 15.7177 31.1455C15.7177 31.1455 15.7373 31.1839 15.7764 31.2606C15.8155 31.3373 15.8252 31.3757 15.8057 31.3757C15.7861 31.3757 15.7959 31.4237 15.835 31.5196C15.8741 31.6155 15.8839 31.673 15.8643 31.6922C15.8643 32.5362 15.229 32.9582 13.9583 32.9582C13.8214 32.9582 13.6553 32.9582 13.4598 32.9582C13.2643 32.9582 13.1274 32.9486 13.0492 32.9295H11.2898L11.4364 33.2172C11.7883 33.9461 11.9642 34.7614 11.9642 35.6629C11.9642 37.7729 11.1823 39.6144 9.61831 41.1874C8.05435 42.7603 6.34378 43.5468 4.48659 43.5468ZM9.67696 35.2313C9.67696 33.6967 8.84611 32.9295 7.18441 32.9295C4.76028 32.9295 3.18655 34.5983 2.46322 37.936C2.44368 38.0127 2.4339 38.0703 2.4339 38.1086C2.27751 38.8184 2.19931 39.4034 2.19931 39.8638C2.19931 40.8229 2.44368 41.4943 2.93241 41.8779C3.42115 42.2616 3.9783 42.463 4.60388 42.4822C5.65955 42.4822 6.62725 42.0314 7.50697 41.1298C8.0739 40.5544 8.53332 39.7871 8.8852 38.828C9.23709 37.8689 9.45214 37.1016 9.53033 36.5261C9.60853 35.9506 9.65741 35.519 9.67696 35.2313Z" fill="black"/>
<path d="M21.433 26.4288H16.537V25.4028L18.877 23.5128C19.225 23.2248 19.495 22.9428 19.687 22.6668C19.891 22.3788 19.993 22.0728 19.993 21.7488V21.6408C19.993 21.3288 19.891 21.0828 19.687 20.9028C19.495 20.7108 19.207 20.6148 18.823 20.6148C18.403 20.6148 18.085 20.7168 17.869 20.9208C17.665 21.1248 17.515 21.3708 17.419 21.6588L16.447 21.2988C16.519 21.0828 16.615 20.8788 16.735 20.6868C16.867 20.4948 17.029 20.3268 17.221 20.1828C17.425 20.0268 17.665 19.9068 17.941 19.8228C18.217 19.7268 18.535 19.6788 18.895 19.6788C19.639 19.6788 20.209 19.8648 20.605 20.2368C21.001 20.5968 21.199 21.0648 21.199 21.6408C21.199 22.1688 21.037 22.6308 20.713 23.0268C20.401 23.4108 19.993 23.7948 19.489 24.1788L17.743 25.5288H21.433V26.4288Z" fill="black"/>
<path d="M43.2179 33.246C43.2179 32.9966 43.3547 32.8048 43.6284 32.6705H62.3079C62.6011 32.824 62.7477 33.0158 62.7477 33.246C62.7477 33.457 62.6109 33.6392 62.3372 33.7927L53.0121 33.8214H43.6871C43.3743 33.7255 43.2179 33.5337 43.2179 33.246ZM43.2179 38.828C43.2179 38.5402 43.3743 38.3484 43.6871 38.2525H62.3372C62.6109 38.4443 62.7477 38.6361 62.7477 38.828C62.7477 39.0773 62.6011 39.2691 62.3079 39.4034H43.6284C43.3547 39.2691 43.2179 39.0773 43.2179 38.828Z" fill="black"/>
<path d="M127.884 19.7062C127.942 19.6679 132.126 19.6487 140.434 19.6487H152.868L154.07 22.8138C154.285 23.4084 154.5 23.9935 154.715 24.5689C154.93 25.1444 155.096 25.5856 155.214 25.8925C155.331 26.1994 155.39 26.3624 155.39 26.3816H154.803L154.217 26.3529C153.767 25.1636 153.053 24.1661 152.076 23.3604C151.098 22.5548 150.033 21.9697 148.88 21.6053C147.844 21.26 146.651 21.0394 145.302 20.9435C143.953 20.8476 141.813 20.7996 138.88 20.7996H135.449C132.79 20.7996 131.461 20.8092 131.461 20.8284C131.52 20.8859 133.133 23.0439 136.3 27.3024C139.467 31.5608 141.06 33.7188 141.079 33.7763C141.197 33.949 141.216 34.0928 141.138 34.2079L140.464 35.0136C139.994 35.5507 139.31 36.3371 138.411 37.373C137.512 38.4088 136.632 39.4351 135.772 40.4517L130.464 46.6092C130.464 46.6283 132.546 46.6379 136.71 46.6379C137.218 46.6379 137.942 46.6379 138.88 46.6379C139.818 46.6379 140.503 46.6475 140.933 46.6667C144.315 46.6667 146.974 46.4078 148.909 45.8898C150.844 45.3719 152.389 44.2306 153.542 42.4658C153.738 42.1589 153.962 41.689 154.217 41.0559H155.39L152.868 48.3931L140.434 48.4219C132.145 48.4219 127.972 48.4027 127.913 48.3643C127.796 48.326 127.737 48.2396 127.737 48.1054C127.737 48.0095 128.343 47.2614 129.555 45.8611C130.884 44.3265 132.126 42.8878 133.279 41.5451L138.646 35.3013C138.646 35.2821 136.827 32.8268 133.191 27.9354L127.766 20.5982L127.737 20.2817C127.737 19.9748 127.786 19.783 127.884 19.7062Z" fill="black"/>
<path d="M128.566 54.5707C128.566 54.2452 128.698 53.9604 128.96 53.7163C129.223 53.4722 129.527 53.3434 129.873 53.3298C130.121 53.3298 130.329 53.4112 130.495 53.5739C130.66 53.7367 130.75 53.9401 130.764 54.1842C130.764 54.4961 130.626 54.7809 130.349 55.0386C130.073 55.2963 129.769 55.4319 129.437 55.4454C129.23 55.4454 129.036 55.3776 128.857 55.242C128.677 55.1064 128.58 54.8826 128.566 54.5707ZM125.187 60.938C125.187 60.8295 125.249 60.6193 125.374 60.3073C125.498 59.9954 125.664 59.6496 125.871 59.2699C126.079 58.8901 126.383 58.5443 126.784 58.2324C127.184 57.9205 127.599 57.7713 128.027 57.7848C128.566 57.7848 129.016 57.9408 129.375 58.2527C129.734 58.5646 129.921 58.9851 129.935 59.514C129.935 59.7445 129.838 60.1242 129.645 60.6532C129.451 61.1821 129.175 61.8941 128.815 62.7891C128.456 63.6842 128.166 64.4504 127.945 65.0878C127.875 65.3862 127.841 65.6032 127.841 65.7388C127.841 66.0779 127.958 66.2474 128.193 66.2474C128.318 66.2474 128.449 66.227 128.587 66.1864C128.725 66.1457 128.884 66.0507 129.064 65.9016C129.244 65.7524 129.43 65.515 129.624 65.1896C129.817 64.8641 129.99 64.464 130.142 63.9893C130.184 63.8266 130.218 63.7317 130.246 63.7046C130.273 63.6774 130.391 63.6639 130.598 63.6639C130.875 63.6639 131.013 63.7317 131.013 63.8673C131.013 63.9758 130.951 64.186 130.826 64.4979C130.702 64.8098 130.529 65.1557 130.308 65.5354C130.087 65.9151 129.776 66.2542 129.375 66.5525C128.974 66.8509 128.546 67.0001 128.09 67.0001C127.647 67.0001 127.24 66.8577 126.866 66.5729C126.493 66.2881 126.3 65.8541 126.286 65.2709C126.286 65.0404 126.32 64.8234 126.39 64.62C126.459 64.4165 126.756 63.6435 127.281 62.3009C127.806 60.9312 128.11 60.1107 128.193 59.8395C128.276 59.5682 128.325 59.3038 128.338 59.0461C128.338 58.7206 128.221 58.5579 127.986 58.5579H127.945C127.53 58.5579 127.15 58.7816 126.804 59.2292C126.459 59.6767 126.196 60.2463 126.016 60.938C126.003 60.9515 125.989 60.9719 125.975 60.999C125.961 61.0261 125.954 61.0464 125.954 61.06C125.954 61.0736 125.94 61.0871 125.913 61.1007C125.885 61.1143 125.864 61.121 125.851 61.121C125.837 61.121 125.809 61.121 125.768 61.121C125.726 61.121 125.671 61.121 125.602 61.121H125.312C125.229 61.0397 125.187 60.9786 125.187 60.938Z" fill="black"/>
<path d="M133.065 59.7174C133.065 59.5411 133.162 59.4055 133.356 59.3105H146.562C146.769 59.419 146.873 59.5547 146.873 59.7174C146.873 59.8666 146.776 59.9954 146.583 60.1039L139.99 60.1242H133.397C133.176 60.0564 133.065 59.9208 133.065 59.7174ZM133.065 63.6639C133.065 63.4604 133.176 63.3248 133.397 63.257H146.583C146.776 63.3926 146.873 63.5282 146.873 63.6639C146.873 63.8402 146.769 63.9758 146.562 64.0707H133.356C133.162 63.9758 133.065 63.8402 133.065 63.6639Z" fill="black"/>
<path d="M152.45 55.0182L152.18 55.12C151.987 55.1878 151.71 55.2556 151.351 55.3234C150.992 55.3912 150.591 55.4387 150.149 55.4658H149.755V54.53H150.149C150.798 54.5029 151.399 54.4012 151.952 54.2249C152.505 54.0486 152.892 53.8858 153.113 53.7367C153.334 53.5875 153.528 53.4383 153.694 53.2891C153.721 53.2484 153.804 53.2281 153.943 53.2281C154.067 53.2281 154.184 53.2688 154.295 53.3501V59.4326L154.316 65.5354C154.413 65.6303 154.495 65.6913 154.565 65.7185C154.634 65.7456 154.8 65.7727 155.062 65.7998C155.325 65.827 155.753 65.8405 156.348 65.8405H156.887V66.7763H156.659C156.368 66.7356 155.269 66.7153 153.362 66.7153C151.482 66.7153 150.397 66.7356 150.107 66.7763H149.858V65.8405H150.397C150.701 65.8405 150.964 65.8405 151.185 65.8405C151.406 65.8405 151.579 65.8337 151.704 65.8202C151.828 65.8066 151.939 65.7863 152.035 65.7592C152.132 65.732 152.187 65.7185 152.201 65.7185C152.215 65.7185 152.256 65.6846 152.326 65.6168C152.395 65.5489 152.436 65.5218 152.45 65.5354V55.0182Z" fill="black"/>
<path d="M137.224 0.935815C137.183 0.935815 137.128 0.935815 137.059 0.935815C136.713 0.935815 136.506 0.929034 136.437 0.915472C136.367 0.901911 136.333 0.827321 136.333 0.691703C136.333 0.325536 136.409 0.101767 136.561 0.0203964C136.589 0.00683467 137.259 5.37876e-05 138.572 5.37876e-05C139.636 5.37876e-05 140.244 5.37876e-05 140.396 5.37876e-05C140.548 5.37876e-05 140.645 0.0407391 140.687 0.12211C143.603 6.84874 145.089 10.3002 145.144 10.4765L146.264 6.14353C146.996 3.282 147.362 1.7563 147.362 1.56644C147.362 1.20027 146.92 0.990062 146.036 0.935815C145.704 0.935815 145.538 0.861225 145.538 0.712046C145.538 0.684922 145.552 0.603552 145.579 0.467934C145.635 0.250946 145.676 0.12211 145.704 0.0814243C145.732 0.0407391 145.801 0.0136155 145.911 5.37876e-05C145.953 5.37876e-05 146.167 0.00683467 146.554 0.0203964C146.941 0.0339582 147.514 0.0475199 148.275 0.0610817C148.966 0.0610817 149.491 0.0543008 149.85 0.0407391C150.21 0.0271773 150.417 0.0203964 150.472 0.0203964C150.68 0.0203964 150.783 0.0882052 150.783 0.223823C150.783 0.522181 150.728 0.725608 150.617 0.834102C150.59 0.901911 150.438 0.935815 150.161 0.935815C149.18 0.990062 148.565 1.2613 148.316 1.74952L145.227 13.7517C145.199 13.8466 145.054 13.8941 144.792 13.8941C144.598 13.8941 144.481 13.8805 144.439 13.8534C144.398 13.8127 143.506 11.7581 141.765 7.68957L139.132 1.60712L137.784 6.89621C136.886 10.368 136.437 12.1649 136.437 12.287C136.506 12.7345 137.003 12.9583 137.929 12.9583H138.137C138.22 13.0261 138.261 13.0804 138.261 13.1211C138.261 13.1617 138.247 13.2906 138.22 13.5076C138.164 13.6839 138.095 13.8127 138.012 13.8941H137.743C137.314 13.8669 136.568 13.8534 135.504 13.8534C135.117 13.8534 134.764 13.8534 134.446 13.8534C134.128 13.8534 133.873 13.8534 133.679 13.8534C133.486 13.8534 133.368 13.8602 133.327 13.8737C133.119 13.8737 133.016 13.8127 133.016 13.6906C133.016 13.6364 133.037 13.5279 133.078 13.3652C133.119 13.2024 133.154 13.1075 133.182 13.0804C133.209 12.999 133.368 12.9583 133.658 12.9583C134.598 12.9176 135.206 12.6532 135.483 12.1649C135.538 12.0836 136.029 10.2053 136.955 6.53004L138.365 0.996843C138.337 0.983281 137.957 0.962939 137.224 0.935815Z" fill="black"/>
<path d="M161.161 34.0353C161.161 32.7117 161.258 31.4553 161.454 30.266C161.649 29.0767 161.874 28.0505 162.128 27.1873C162.382 26.3241 162.744 25.4801 163.213 24.6552C163.682 23.8304 164.054 23.1878 164.328 22.7274C164.601 22.2671 165.012 21.7683 165.559 21.2312C166.107 20.6941 166.429 20.368 166.527 20.2529C166.625 20.1378 166.869 19.9364 167.26 19.6487H167.641H167.758C168.032 19.6487 168.169 19.735 168.169 19.9077C168.169 19.9652 168.003 20.1666 167.671 20.5119C167.338 20.8572 166.937 21.3655 166.468 22.0369C165.999 22.7083 165.52 23.5331 165.031 24.5114C164.543 25.4897 164.132 26.8132 163.8 28.4821C163.467 30.1509 163.301 32.002 163.301 34.0353C163.301 36.0686 163.467 37.9101 163.8 39.5597C164.132 41.2094 164.533 42.5426 165.002 43.5592C165.471 44.5759 165.95 45.4007 166.439 46.0337C166.928 46.6667 167.338 47.175 167.671 47.5587C168.003 47.9423 168.169 48.1437 168.169 48.1629C168.169 48.3356 168.022 48.4219 167.729 48.4219H167.641H167.26L166.439 47.7313C164.601 46.1008 163.262 44.0675 162.422 41.6314C161.581 39.1953 161.161 36.6632 161.161 34.0353Z" fill="black"/>
<path d="M171.336 32.9131C171.473 32.1075 172.001 31.1772 172.92 30.1221C173.838 29.0671 174.972 28.53 176.321 28.5108C177.005 28.5108 177.631 28.6835 178.198 29.0288C178.765 29.374 179.185 29.8056 179.459 30.3236C180.28 29.1151 181.267 28.5108 182.421 28.5108C183.144 28.5108 183.769 28.7218 184.297 29.1439C184.825 29.5659 185.099 30.1317 185.118 30.8415C185.118 31.3978 184.982 31.8485 184.708 32.1938C184.434 32.5391 184.17 32.7501 183.916 32.8268C183.662 32.9035 183.437 32.9419 183.242 32.9419C182.87 32.9419 182.567 32.8364 182.333 32.6254C182.098 32.4144 181.981 32.1363 181.981 31.791C181.981 30.9086 182.469 30.3044 183.447 29.9783C183.232 29.7289 182.841 29.6042 182.274 29.6042C182.02 29.6042 181.834 29.6234 181.717 29.6618C180.974 29.9687 180.426 30.6017 180.075 31.5608C178.902 35.8 178.315 38.2745 178.315 38.9843C178.315 39.5214 178.472 39.905 178.784 40.1352C179.097 40.3654 179.439 40.4805 179.811 40.4805C180.534 40.4805 181.248 40.164 181.951 39.531C182.655 38.898 183.134 38.1211 183.388 37.2003C183.447 37.0085 183.506 36.903 183.564 36.8838C183.623 36.8647 183.779 36.8455 184.033 36.8263H184.151C184.444 36.8263 184.591 36.903 184.591 37.0565C184.591 37.0757 184.571 37.1812 184.532 37.373C184.219 38.4664 183.613 39.4351 182.714 40.2791C181.815 41.1231 180.769 41.5451 179.576 41.5451C178.208 41.5451 177.172 40.9409 176.468 39.7324C175.666 40.9217 174.747 41.5163 173.711 41.5163H173.535C172.577 41.5163 171.893 41.267 171.483 40.7682C171.072 40.2695 170.857 39.742 170.838 39.1857C170.838 38.5719 171.023 38.0731 171.395 37.6895C171.766 37.3058 172.206 37.114 172.714 37.114C173.555 37.114 173.975 37.5168 173.975 38.3225C173.975 38.7061 173.858 39.0418 173.623 39.3296C173.389 39.6173 173.164 39.8091 172.949 39.905C172.734 40.0009 172.607 40.0489 172.568 40.0489L172.48 40.0777C172.48 40.0968 172.538 40.1352 172.656 40.1928C172.773 40.2503 172.929 40.3174 173.125 40.3942C173.32 40.4709 173.506 40.4997 173.682 40.4805C174.386 40.4805 174.992 40.0489 175.5 39.1857C175.676 38.8788 175.901 38.2266 176.175 37.2291C176.448 36.2316 176.722 35.1958 176.996 34.1216C177.269 33.0474 177.426 32.4144 177.465 32.2226C177.563 31.7047 177.611 31.3306 177.611 31.1004C177.611 30.5633 177.465 30.1797 177.172 29.9495C176.878 29.7193 176.546 29.6042 176.175 29.6042C175.393 29.6042 174.659 29.9111 173.975 30.525C173.291 31.1388 172.812 31.9253 172.538 32.8844C172.499 33.057 172.45 33.1529 172.392 33.1721C172.333 33.1913 172.177 33.2105 171.923 33.2296H171.512C171.395 33.1146 171.336 33.0091 171.336 32.9131Z" fill="black"/>
<path d="M190.399 33.339C190.399 33.0135 190.531 32.7287 190.793 32.4846C191.056 32.2405 191.36 32.1116 191.705 32.0981C191.954 32.0981 192.162 32.1795 192.327 32.3422C192.493 32.5049 192.583 32.7084 192.597 32.9525C192.597 33.2644 192.459 33.5492 192.182 33.8069C191.906 34.0645 191.602 34.2002 191.27 34.2137C191.063 34.2137 190.869 34.1459 190.69 34.0103C190.51 33.8747 190.413 33.6509 190.399 33.339ZM187.02 39.7062C187.02 39.5977 187.082 39.3875 187.207 39.0756C187.331 38.7637 187.497 38.4179 187.704 38.0381C187.911 37.6584 188.215 37.3126 188.616 37.0007C189.017 36.6887 189.432 36.5396 189.86 36.5531C190.399 36.5531 190.848 36.7091 191.208 37.021C191.567 37.3329 191.754 37.7533 191.768 38.2822C191.768 38.5128 191.671 38.8925 191.477 39.4214C191.284 39.9503 191.007 40.6623 190.648 41.5574C190.289 42.4525 189.998 43.2187 189.777 43.8561C189.708 44.1545 189.674 44.3715 189.674 44.5071C189.674 44.8461 189.791 45.0157 190.026 45.0157C190.15 45.0157 190.282 44.9953 190.42 44.9546C190.558 44.9139 190.717 44.819 190.897 44.6698C191.077 44.5207 191.263 44.2833 191.457 43.9578C191.65 43.6324 191.823 43.2323 191.975 42.7576C192.016 42.5949 192.051 42.5 192.079 42.4728C192.106 42.4457 192.224 42.4321 192.431 42.4321C192.707 42.4321 192.846 42.5 192.846 42.6356C192.846 42.7441 192.783 42.9543 192.659 43.2662C192.535 43.5781 192.362 43.9239 192.141 44.3037C191.92 44.6834 191.609 45.0224 191.208 45.3208C190.807 45.6192 190.379 45.7683 189.922 45.7683C189.48 45.7683 189.072 45.6259 188.699 45.3411C188.326 45.0563 188.133 44.6224 188.119 44.0392C188.119 43.8087 188.153 43.5917 188.222 43.3882C188.292 43.1848 188.589 42.4118 189.114 41.0692C189.639 39.6994 189.943 38.879 190.026 38.6077C190.109 38.3365 190.157 38.072 190.171 37.8144C190.171 37.4889 190.054 37.3261 189.819 37.3261H189.777C189.363 37.3261 188.983 37.5499 188.637 37.9974C188.292 38.445 188.029 39.0146 187.849 39.7062C187.835 39.7198 187.822 39.7401 187.808 39.7673C187.794 39.7944 187.787 39.8147 187.787 39.8283C187.787 39.8418 187.773 39.8554 187.746 39.869C187.718 39.8825 187.697 39.8893 187.683 39.8893C187.67 39.8893 187.642 39.8893 187.6 39.8893C187.559 39.8893 187.504 39.8893 187.435 39.8893H187.144C187.061 39.8079 187.02 39.7469 187.02 39.7062Z" fill="black"/>
<path d="M204.185 34.4093C204.185 34.4093 204.185 34.2847 204.185 34.0353C204.185 33.7859 204.322 33.5941 204.595 33.4598H221.633C221.926 33.6133 222.073 33.8051 222.073 34.0353C222.073 34.2655 221.926 34.4573 221.633 34.6108H204.595C204.322 34.4765 204.185 34.2847 204.185 34.0353V34.4093Z" fill="black"/>
<path d="M232.576 32.9131C232.713 32.1075 233.241 31.1772 234.16 30.1221C235.079 29.0671 236.213 28.53 237.562 28.5108C238.246 28.5108 238.871 28.6835 239.438 29.0288C240.005 29.374 240.426 29.8056 240.699 30.3236C241.52 29.1151 242.508 28.5108 243.661 28.5108C244.384 28.5108 245.01 28.7218 245.538 29.1439C246.066 29.5659 246.339 30.1317 246.359 30.8415C246.359 31.3977 246.222 31.8485 245.948 32.1938C245.675 32.5391 245.411 32.7501 245.157 32.8268C244.902 32.9035 244.678 32.9419 244.482 32.9419C244.111 32.9419 243.808 32.8364 243.573 32.6254C243.338 32.4144 243.221 32.1363 243.221 31.791C243.221 30.9086 243.71 30.3044 244.687 29.9783C244.472 29.7289 244.081 29.6042 243.514 29.6042C243.26 29.6042 243.075 29.6234 242.957 29.6618C242.214 29.9687 241.667 30.6017 241.315 31.5608C240.142 35.8 239.556 38.2745 239.556 38.9843C239.556 39.5214 239.712 39.905 240.025 40.1352C240.338 40.3654 240.68 40.4805 241.051 40.4805C241.774 40.4805 242.488 40.164 243.192 39.531C243.896 38.898 244.375 38.1211 244.629 37.2003C244.687 37.0085 244.746 36.903 244.805 36.8838C244.863 36.8647 245.02 36.8455 245.274 36.8263H245.391C245.684 36.8263 245.831 36.903 245.831 37.0565C245.831 37.0757 245.811 37.1812 245.772 37.373C245.46 38.4664 244.854 39.4351 243.954 40.2791C243.055 41.1231 242.009 41.5451 240.817 41.5451C239.448 41.5451 238.412 40.9409 237.708 39.7324C236.907 40.9217 235.988 41.5163 234.952 41.5163H234.776C233.818 41.5163 233.134 41.2669 232.723 40.7682C232.313 40.2695 232.098 39.742 232.078 39.1857C232.078 38.5719 232.264 38.0731 232.635 37.6895C233.007 37.3058 233.446 37.114 233.955 37.114C234.795 37.114 235.216 37.5168 235.216 38.3225C235.216 38.7061 235.098 39.0418 234.864 39.3296C234.629 39.6173 234.404 39.8091 234.189 39.905C233.974 40.0009 233.847 40.0489 233.808 40.0489L233.72 40.0777C233.72 40.0968 233.779 40.1352 233.896 40.1928C234.013 40.2503 234.17 40.3174 234.365 40.3942C234.561 40.4709 234.746 40.4997 234.922 40.4805C235.626 40.4805 236.232 40.0489 236.741 39.1857C236.916 38.8788 237.141 38.2266 237.415 37.2291C237.689 36.2316 237.962 35.1958 238.236 34.1216C238.51 33.0474 238.666 32.4144 238.705 32.2226C238.803 31.7047 238.852 31.3306 238.852 31.1004C238.852 30.5633 238.705 30.1797 238.412 29.9495C238.119 29.7193 237.786 29.6042 237.415 29.6042C236.633 29.6042 235.9 29.9111 235.216 30.525C234.531 31.1388 234.052 31.9253 233.779 32.8844C233.74 33.057 233.691 33.1529 233.632 33.1721C233.574 33.1913 233.417 33.2105 233.163 33.2296H232.752C232.635 33.1145 232.576 33.009 232.576 32.9131Z" fill="black"/>
<path d="M230.331 26.051V25.1153H248.496V26.051H230.331Z" fill="black"/>
<path d="M249.584 19.6775L249.702 19.6487C249.8 19.6487 249.897 19.6487 249.995 19.6487H250.347L251.168 20.3393C253.006 21.9697 254.345 24.003 255.185 26.4392C256.026 28.8753 256.446 31.4073 256.446 34.0353C256.446 35.3397 256.349 36.5961 256.153 37.8046C255.958 39.013 255.733 40.0393 255.479 40.8833C255.224 41.7273 254.863 42.5713 254.394 43.4153C253.924 44.2594 253.553 44.902 253.279 45.3431C253.006 45.7843 252.605 46.2735 252.077 46.8106C251.549 47.3477 251.236 47.6642 251.139 47.7601C251.041 47.856 250.816 48.0382 250.464 48.3068C250.406 48.3643 250.366 48.4027 250.347 48.4219H249.995C249.839 48.4219 249.731 48.4219 249.672 48.4219C249.614 48.4219 249.565 48.3931 249.526 48.3356C249.487 48.278 249.457 48.1917 249.438 48.0766C249.457 48.0574 249.565 47.9327 249.76 47.7025C252.791 44.6142 254.306 40.0585 254.306 34.0353C254.306 28.0121 252.791 23.4564 249.76 20.368C249.565 20.1378 249.457 20.0132 249.438 19.994C249.438 19.8405 249.487 19.735 249.584 19.6775Z" fill="black"/>
<path d="M263.66 19.8352H258.764V18.8092L261.104 16.9192C261.452 16.6312 261.722 16.3492 261.914 16.0732C262.118 15.7852 262.22 15.4792 262.22 15.1552V15.0472C262.22 14.7352 262.118 14.4892 261.914 14.3092C261.722 14.1172 261.434 14.0212 261.05 14.0212C260.63 14.0212 260.312 14.1232 260.096 14.3272C259.892 14.5312 259.742 14.7772 259.646 15.0652L258.674 14.7052C258.746 14.4892 258.842 14.2852 258.962 14.0932C259.094 13.9012 259.256 13.7332 259.448 13.5892C259.652 13.4332 259.892 13.3132 260.168 13.2292C260.444 13.1332 260.762 13.0852 261.122 13.0852C261.866 13.0852 262.436 13.2712 262.832 13.6432C263.228 14.0032 263.426 14.4712 263.426 15.0472C263.426 15.5752 263.264 16.0372 262.94 16.4332C262.628 16.8172 262.22 17.2012 261.716 17.5852L259.97 18.9352H263.66V19.8352Z" fill="black"/>
<path d="M90.5193 13.546L90.2083 13.6634C89.985 13.7416 89.6659 13.8199 89.2512 13.8981C88.8365 13.9764 88.3739 14.0312 87.8634 14.0625H87.4088V12.9825H87.8634C88.6131 12.9512 89.307 12.8338 89.9451 12.6303C90.5831 12.4269 91.0298 12.239 91.285 12.0669C91.5402 11.8947 91.7636 11.7225 91.955 11.5504C91.9869 11.5034 92.0826 11.4799 92.2421 11.4799C92.3857 11.4799 92.5213 11.5269 92.6489 11.6208V18.6406L92.6728 25.684C92.7845 25.7935 92.8802 25.864 92.9599 25.8953C93.0397 25.9266 93.2311 25.9579 93.5342 25.9892C93.8373 26.0205 94.3318 26.0361 95.0177 26.0361H95.6398V27.1161H95.3766C95.0416 27.0692 93.7735 27.0457 91.5721 27.0457C89.4027 27.0457 88.1505 27.0692 87.8156 27.1161H87.5284V26.0361H88.1505C88.5015 26.0361 88.8045 26.0361 89.0598 26.0361C89.315 26.0361 89.5144 26.0283 89.658 26.0127C89.8015 25.997 89.9291 25.9735 90.0408 25.9422C90.1525 25.9109 90.2163 25.8953 90.2322 25.8953C90.2482 25.8953 90.296 25.8561 90.3758 25.7779C90.4555 25.6996 90.5034 25.6683 90.5193 25.684V13.546Z" fill="black"/>
<path d="M86.3799 44.1375C86.3321 44.1375 86.2683 44.1375 86.1885 44.1375C85.7897 44.1375 85.5504 44.1297 85.4707 44.114C85.3909 44.0984 85.351 44.0123 85.351 43.8558C85.351 43.4332 85.4388 43.1749 85.6142 43.081C85.6461 43.0653 86.4198 43.0575 87.9352 43.0575C89.1635 43.0575 89.8653 43.0575 90.0408 43.0575C90.2163 43.0575 90.3279 43.1045 90.3758 43.1984C93.7415 50.9617 95.4563 54.9451 95.5201 55.1486L96.8122 50.1478C97.6576 46.8453 98.0804 45.0844 98.0804 44.8653C98.0804 44.4427 97.5699 44.2001 96.549 44.1375C96.1662 44.1375 95.9748 44.0514 95.9748 43.8792C95.9748 43.8479 95.9907 43.754 96.0226 43.5975C96.0864 43.3471 96.1343 43.1984 96.1662 43.1514C96.1981 43.1045 96.2778 43.0732 96.4055 43.0575C96.4533 43.0575 96.7006 43.0653 97.1472 43.081C97.5938 43.0966 98.2558 43.1123 99.1332 43.1279C99.9307 43.1279 100.537 43.1201 100.952 43.1045C101.366 43.0888 101.606 43.081 101.669 43.081C101.909 43.081 102.028 43.1592 102.028 43.3158C102.028 43.6601 101.965 43.8949 101.837 44.0201C101.805 44.0984 101.63 44.1375 101.311 44.1375C100.178 44.2001 99.4681 44.5131 99.181 45.0766L95.6159 58.9285C95.5839 59.038 95.4165 59.0928 95.1134 59.0928C94.8901 59.0928 94.7545 59.0772 94.7066 59.0459C94.6588 58.9989 93.6299 56.6277 91.62 51.9321L88.5812 44.9123L87.026 51.0165C85.9891 55.0233 85.4707 57.0972 85.4707 57.2381C85.5504 57.7546 86.1247 58.0128 87.1934 58.0128H87.4327C87.5284 58.0911 87.5763 58.1537 87.5763 58.2007C87.5763 58.2476 87.5603 58.3963 87.5284 58.6467C87.4646 58.8502 87.3849 58.9989 87.2892 59.0928H86.9781C86.4836 59.0615 85.6222 59.0459 84.394 59.0459C83.9473 59.0459 83.5405 59.0459 83.1737 59.0459C82.8068 59.0459 82.5117 59.0459 82.2883 59.0459C82.065 59.0459 81.9294 59.0537 81.8816 59.0693C81.6423 59.0693 81.5227 58.9989 81.5227 58.858C81.5227 58.7954 81.5466 58.6702 81.5945 58.4824C81.6423 58.2946 81.6822 58.185 81.7141 58.1537C81.746 58.0598 81.9294 58.0128 82.2644 58.0128C83.3491 57.9659 84.051 57.6607 84.37 57.0972C84.4338 57.0033 85.0001 54.8355 86.0689 50.5939L87.6959 44.2079C87.664 44.1923 87.2253 44.1688 86.3799 44.1375Z" fill="black"/>
<path d="M104.421 37.822H78.3882V36.4133H104.421V37.822Z" fill="black"/>
<path d="M114.475 37.1176C114.475 36.742 114.611 36.4133 114.882 36.1316C115.153 35.8498 115.496 35.709 115.911 35.709C116.294 35.709 116.629 35.8342 116.916 36.0846C117.203 36.335 117.355 36.6715 117.371 37.0941C117.371 37.4854 117.235 37.822 116.964 38.1037C116.693 38.3854 116.35 38.5263 115.935 38.5263C115.52 38.5263 115.177 38.3932 114.906 38.1272C114.635 37.8611 114.491 37.5246 114.475 37.1176Z" fill="black"/>
</svg>
